<?xml version="1.0" encoding="UTF-8"?>
<svg version="1.1" xmlns="http://www.w3.org/2000/svg" width="290" height="344">
<path d="M0 0 C95.7 0 191.4 0 290 0 C290 113.52 290 227.04 290 344 C194.3 344 98.6 344 0 344 C0 230.48 0 116.96 0 0 Z " fill="#FEFEFE" transform="translate(0,0)"/>
<path d="M0 0 C22.74842511 19.21043097 36.8363379 43.91836313 41.0390625 73.56640625 C42.16693511 87.91689039 41.2934719 101.80785261 37.0390625 115.56640625 C36.79768555 116.34854492 36.55630859 117.13068359 36.30761719 117.93652344 C27.39844483 145.87434317 9.24031235 168.72314369 -16.85449219 182.57128906 C-44.03845308 196.39246489 -73.43484627 199.52961692 -102.7109375 190.37890625 C-111.77471748 187.11912573 -120.93231945 182.91881828 -128.9609375 177.56640625 C-128.4659375 178.30890625 -128.4659375 178.30890625 -127.9609375 179.06640625 C-125.85968586 184.31953535 -126.47719114 188.97905567 -128.5859375 194.06640625 C-132.63038876 202.2672659 -138.56823673 208.36443636 -145.08203125 214.66015625 C-147.23411378 216.77784732 -149.22053331 218.9909148 -151.1875 221.28125 C-155.52686537 226.29481222 -160.20120929 230.95282085 -164.8984375 235.62890625 C-165.75373047 236.48806641 -166.60902344 237.34722656 -167.49023438 238.23242188 C-195.81894971 266.51792025 -195.81894971 266.51792025 -209.0234375 266.87890625 C-219.77026872 266.73768639 -230.01138001 261.01092884 -237.84765625 253.83984375 C-242.89820417 248.26770272 -246.60544339 241.70220266 -247.11328125 234.09765625 C-246.13087405 217.77458276 -234.44875062 203.19239799 -224.9609375 190.56640625 C-224.43725586 189.86467285 -223.91357422 189.16293945 -223.37402344 188.43994141 C-213.04327522 174.6585663 -201.89495175 162.04282338 -189.3359375 150.25390625 C-188.75585938 149.70822998 -188.17578125 149.16255371 -187.578125 148.6003418 C-182.34430881 143.79007588 -179.58228721 142.28907271 -172.4609375 142.37890625 C-171.336875 142.38535156 -170.2128125 142.39179688 -169.0546875 142.3984375 C-166.50530496 142.53685095 -164.3872193 142.82306011 -161.9609375 143.56640625 C-162.48042969 142.57382813 -162.99992187 141.58125 -163.53515625 140.55859375 C-177.57889283 113.37140334 -182.93684006 84.40466736 -173.9609375 54.56640625 C-164.15607582 24.19507389 -143.88859115 1.49302271 -116.0234375 -13.24609375 C-78.04802896 -31.4399618 -33.05673488 -25.7737867 0 0 Z " fill="#0B0606" transform="translate(247.9609375,52.43359375)"/>
<path d="M0 0 C3.49152767 2.85295919 6.78469787 5.83994361 10 9 C10.62648437 9.61359375 11.25296875 10.2271875 11.8984375 10.859375 C27.05106208 26.90333044 31.7343272 46.92290103 31.375 68.28125 C30.51784878 89.93044092 20.83559224 107.80060006 5.3125 122.6875 C-11.78457728 137.52446597 -33.27224504 143.40924608 -55.57519531 142.20263672 C-72.1376802 140.81853861 -87.8244284 133.1407581 -100 122 C-101.02287109 121.11441406 -101.02287109 121.11441406 -102.06640625 120.2109375 C-116.3475847 107.07560703 -124.93085511 86.6630142 -126.16015625 67.50390625 C-126.86272238 44.9912436 -119.0734617 24.71274164 -103.74780273 8.23120117 C-76.82816329 -19.51335958 -30.9323848 -23.46264482 0 0 Z " fill="#DAF6FC" transform="translate(227,76)"/>
<path d="M0 0 C17.62366494 14.82515646 30.49070528 33.98301872 35.9765625 56.50390625 C36.31300781 57.85742188 36.31300781 57.85742188 36.65625 59.23828125 C42.00106317 85.15696428 36.07702275 113.32004311 21.9765625 135.50390625 C6.19291838 158.88180177 -16.80907753 173.6683959 -44.16796875 180.26171875 C-70.00482641 184.97138985 -96.88981938 179.64308723 -119.0234375 165.50390625 C-144.11394988 148.03745723 -159.1099693 124.07857876 -164.6640625 94.0390625 C-167.53948523 65.75365417 -161.14757804 39.20167169 -143.62109375 16.61328125 C-126.44442394 -4.32057727 -103.30892411 -18.05694803 -76.21923828 -21.29321289 C-48.56104637 -23.84868959 -22.07443493 -17.21106997 0 0 Z M-119.0234375 25.50390625 C-119.8071875 26.28765625 -120.5909375 27.07140625 -121.3984375 27.87890625 C-135.41516921 42.65329913 -141.80037898 61.48520808 -142.3984375 81.62890625 C-141.64107462 105.69987431 -130.70608589 125.54812164 -113.65625 141.75390625 C-97.5631048 155.62543881 -77.35573748 161.01956309 -56.46337891 159.72265625 C-37.20861621 157.99639375 -18.09616478 148.66088287 -4.7734375 134.6015625 C11.99456761 114.50241352 17.3104696 92.34118462 14.9765625 66.50390625 C12.67356426 51.81873847 4.71944166 38.47646919 -5.0234375 27.50390625 C-5.91095703 26.47523437 -5.91095703 26.47523437 -6.81640625 25.42578125 C-16.67695313 14.74527418 -29.38974487 8.79626412 -43.0234375 4.50390625 C-43.87035156 4.23707031 -44.71726562 3.97023438 -45.58984375 3.6953125 C-71.69635922 -2.88806966 -100.43968636 6.92015511 -119.0234375 25.50390625 Z " fill="#F77E7D" transform="translate(243.0234375,58.49609375)"/>
<path d="M0 0 C0.0515625 0.73863281 0.103125 1.47726563 0.15625 2.23828125 C1.43494281 13.6738635 7.31037063 21.48213505 16.13671875 28.62890625 C21.83849736 32.82455466 26.11838982 33.41289661 33 33 C32.55109057 37.98868703 31.31799783 40.33694125 27.875 43.9375 C27.0603125 44.79988281 26.245625 45.66226563 25.40625 46.55078125 C22.88374838 49.11832754 20.34885832 51.67049972 17.77832031 54.18994141 C16.04249832 55.9567432 14.43451818 57.78339647 12.828125 59.66796875 C8.87495316 64.21333304 4.65745344 68.45422668 0.375 72.6875 C-0.36234375 73.42033203 -1.0996875 74.15316406 -1.859375 74.90820312 C-3.27997226 76.31988983 -4.7017109 77.73042916 -6.12475586 79.13964844 C-7.66622428 80.66887502 -9.19949576 82.20635983 -10.73046875 83.74609375 C-17.64213489 90.61017527 -24.87912893 96.62085421 -33 102 C-33.99 102.66 -34.98 103.32 -36 104 C-42.55608749 105.11207796 -47.51077773 103.49314144 -53 100 C-54.04027344 99.34644531 -54.04027344 99.34644531 -55.1015625 98.6796875 C-60.86286147 94.73093202 -64.604023 90.39584248 -66.734375 83.6875 C-68.40711936 74.68928894 -63.62051166 67.87384746 -58.79296875 60.65234375 C-53.96827448 53.64644625 -48.68278328 47.00315197 -43.32397461 40.40185547 C-40.39582783 36.78731372 -37.61325874 33.12094189 -34.9375 29.3125 C-30.47633556 23.06499927 -25.29842656 17.5370203 -20 12 C-19.27296875 11.22527344 -18.5459375 10.45054687 -17.796875 9.65234375 C-16 8 -16 8 -14 8 C-13.62488281 7.09701172 -13.62488281 7.09701172 -13.2421875 6.17578125 C-11.81687236 3.67923869 -10.54759258 2.70047763 -8.125 1.1875 C-7.44695312 0.74792969 -6.76890625 0.30835938 -6.0703125 -0.14453125 C-3.59237953 -1.16843185 -2.47510086 -0.90457722 0 0 Z " fill="#FC7E7E" transform="translate(79,204)"/>
<path d="M0 0 C18.03919593 14.38343055 31.46614373 33.8821217 35 57 C36.91541181 81.44816271 32.42289769 105.98627278 16.3046875 125.328125 C1.52708418 142.27333952 -19.94223158 155.44077533 -42.87280273 157.13867188 C-65.84857368 158.20865413 -89.15195199 152.5475425 -106.75488281 136.99121094 C-123.44995676 121.67779829 -135.21059516 102.67625536 -137.3034668 79.66308594 C-137.4351922 76.31088457 -137.46838894 72.97958707 -137.4375 69.625 C-137.42847656 68.44252686 -137.41945313 67.26005371 -137.41015625 66.04174805 C-136.95612745 43.09595231 -126.50417897 22.90791208 -110.3918457 6.83325195 C-100.62010985 -2.4535479 -88.85628435 -9.0268267 -76 -13 C-75.03578125 -13.31710938 -74.0715625 -13.63421875 -73.078125 -13.9609375 C-48.37499987 -20.93669045 -20.78494413 -14.33166264 0 0 Z M-107 15 C-107.78375 15.78375 -108.5675 16.5675 -109.375 17.375 C-123.39173171 32.14939288 -129.77694148 50.98130183 -130.375 71.125 C-129.61763712 95.19596806 -118.68264839 115.04421539 -101.6328125 131.25 C-85.5396673 145.12153256 -65.33229998 150.51565684 -44.43994141 149.21875 C-25.18517871 147.4924875 -6.07272728 138.15697662 7.25 124.09765625 C24.01800511 103.99850727 29.3339071 81.83727837 27 56 C24.69700176 41.31483222 16.74287916 27.97256294 7 17 C6.11248047 15.97132812 6.11248047 15.97132812 5.20703125 14.921875 C-4.65351563 4.24136793 -17.36630737 -1.70764213 -31 -6 C-31.84691406 -6.26683594 -32.69382812 -6.53367187 -33.56640625 -6.80859375 C-59.67292172 -13.39197591 -88.41624886 -3.58375114 -107 15 Z " fill="#0C0607" transform="translate(231,69)"/>
<path d="M0 0 C17.16 0 34.32 0 52 0 C52 1.65 52 3.3 52 5 C51.07767578 5.27263672 51.07767578 5.27263672 50.13671875 5.55078125 C48.92435547 5.92783203 48.92435547 5.92783203 47.6875 6.3125 C46.48673828 6.67794922 46.48673828 6.67794922 45.26171875 7.05078125 C42.72315896 8.11618717 41.65058458 8.79980336 40 11 C39.54235652 13.98738282 39.54235652 13.98738282 39.61181641 17.44335938 C39.60393097 18.41702202 39.60393097 18.41702202 39.59588623 19.41035461 C39.58268704 21.55506484 39.59142328 23.69903228 39.6015625 25.84375 C39.59954172 27.33443342 39.59663025 28.82511587 39.59286499 30.3157959 C39.58844178 33.43963027 39.59487235 36.56320726 39.60888672 39.68701172 C39.62597892 43.69218177 39.61613768 47.69674875 39.59816933 51.70189667 C39.58733124 54.77997384 39.59077787 57.85790791 39.5985527 60.93598938 C39.60055466 62.41278657 39.59809558 63.88959674 39.59111404 65.36637878 C39.58349877 67.43014969 39.59510306 69.49294261 39.61181641 71.55664062 C39.61539658 73.31844666 39.61539658 73.31844666 39.61904907 75.11584473 C39.75928548 77.99641609 39.75928548 77.99641609 41.39657593 79.85705566 C43.30793832 81.21950298 44.89737749 81.6994411 47.1875 82.1875 C48.445625 82.455625 49.70375 82.72375 51 83 C51 84.98 51 86.96 51 89 C34.17 88.67 17.34 88.34 0 88 C0 86.35 0 84.7 0 83 C0.69867188 82.81824219 1.39734375 82.63648438 2.1171875 82.44921875 C3.02726563 82.19785156 3.93734375 81.94648438 4.875 81.6875 C5.77992188 81.44386719 6.68484375 81.20023437 7.6171875 80.94921875 C10.32113319 80.13330148 10.32113319 80.13330148 12 77 C12.31892434 74.05571475 12.31892434 74.05571475 12.29052734 70.66430664 C12.30328705 69.35607437 12.31604675 68.0478421 12.32919312 66.69996643 C12.33225041 65.2700312 12.33447836 63.840094 12.3359375 62.41015625 C12.34236427 60.94428883 12.34909254 59.4784227 12.35610962 58.01255798 C12.36808481 54.94006374 12.37179016 51.86768195 12.37060547 48.79516602 C12.37040216 44.85950771 12.39771399 40.92457061 12.43214989 36.98908329 C12.45439455 33.9615905 12.45844379 30.93427201 12.45738602 27.90670586 C12.45974529 26.45583038 12.46858726 25.00495034 12.48405075 23.55415535 C12.50365926 21.52456083 12.49536342 19.49475479 12.48583984 17.46508789 C12.48868988 16.31053604 12.49153992 15.15598419 12.49447632 13.96644592 C11.89431826 10.36599761 10.82508503 9.23135606 8 7 C5.90324347 5.91590916 5.90324347 5.91590916 3.75 5.25 C2.5125 4.8375 1.275 4.425 0 4 C0 2.68 0 1.36 0 0 Z " fill="#030405" transform="translate(153,92)"/>
<path d="M0 0 C3.63567765 1.47025206 5.26546455 3.36452181 7.5625 6.5 C12.15387529 12.44025391 18.19275782 19.59637891 25 23 C25 23.66 25 24.32 25 25 C18.75608766 29.04017857 18.75608766 29.04017857 15.57421875 28.87109375 C8.15896403 26.36183457 2.15809705 18.98959898 -1.23046875 12.140625 C-2.37633664 8.95313462 -2.46671743 6.33369596 -2 3 C-1.34 2.01 -0.68 1.02 0 0 Z " fill="#CBAA81" transform="translate(89,202)"/>
<path d="M0 0 C2.4375 1.625 2.4375 1.625 4.875 3.25 C4.875 3.91 4.875 4.57 4.875 5.25 C-1.30681818 9.25 -1.30681818 9.25 -4.8125 9.25 C-7.58122246 8.05271461 -9.15621396 6.51045805 -11.125 4.25 C-10.135 4.25 -9.145 4.25 -8.125 4.25 C-7.795 3.26 -7.465 2.27 -7.125 1.25 C-4.40943072 -0.29126905 -3.01051863 -1.06253599 0 0 Z " fill="#C3A47D" transform="translate(109.125,221.75)"/>
<path d="M0 0 C0.66 0.33 1.32 0.66 2 1 C-3.3250511 7.12627407 -8.72690435 12.83794309 -15 18 C-15 13.07254925 -11.31913617 10.39978807 -8 7 C-5.39491779 4.58973264 -2.72918126 2.2684104 0 0 Z " fill="#E0797B" transform="translate(65,211)"/>
<path d="M0 0 C0.33 0.66 0.66 1.32 1 2 C0.109375 4.20703125 0.109375 4.20703125 -1.25 6.8125 C-1.7140625 7.7096875 -2.178125 8.606875 -2.65625 9.53125 C-3.63162941 11.32322612 -4.672142 13.08022822 -5.75 14.8125 C-7.12153464 17.21268563 -7.61104395 19.27730764 -8 22 C-8.33 22 -8.66 22 -9 22 C-8.57020393 12.97428246 -5.4472805 7.08783574 0 0 Z " fill="#DC797C" transform="translate(21,264)"/>
<path d="M0 0 C0 0.66 0 1.32 0 2 C-0.65226562 2.25394531 -1.30453125 2.50789063 -1.9765625 2.76953125 C-5.89665407 4.31328413 -9.72889336 5.86444668 -13.5 7.75 C-16 9 -16 9 -18 9 C-18 8.34 -18 7.68 -18 7 C-15.37690901 5.82887054 -12.75171858 4.66294036 -10.125 3.5 C-9.37863281 3.16613281 -8.63226563 2.83226562 -7.86328125 2.48828125 C-7.14785156 2.17246094 -6.43242187 1.85664062 -5.6953125 1.53125 C-5.03547363 1.23798828 -4.37563477 0.94472656 -3.69580078 0.64257812 C-2 0 -2 0 0 0 Z " fill="#DB7B7B" transform="translate(150,41)"/>
<path d="M0 0 C0.33 0.66 0.66 1.32 1 2 C0.06553465 4.03144641 -0.93224776 6.03533587 -2 8 C-2.66 8 -3.32 8 -4 8 C-4.33 9.32 -4.66 10.64 -5 12 C-5.66 11.01 -6.32 10.02 -7 9 C-4.69 6.03 -2.38 3.06 0 0 Z " fill="#E07B7D" transform="translate(253,185)"/>
<path d="M0 0 C0.66 0.66 1.32 1.32 2 2 C-0.64 4.31 -3.28 6.62 -6 9 C-6.66 8.67 -7.32 8.34 -8 8 C-5.36 5.36 -2.72 2.72 0 0 Z " fill="#230808" transform="translate(102,252)"/>
<path d="M0 0 C1.45002516 4.77171399 -0.03357399 7.95976731 -2.125 12.375 C-2.41375 12.91125 -2.7025 13.4475 -3 14 C-3.66 14 -4.32 14 -5 14 C-3.46527032 9.27775484 -1.76054874 4.64144669 0 0 Z " fill="#D07474" transform="translate(261,167)"/>
<path d="M0 0 C2.34914492 2.34914492 2.73140357 3.95679446 3.625 7.125 C3.88539063 8.03507812 4.14578125 8.94515625 4.4140625 9.8828125 C4.70410156 10.93082031 4.70410156 10.93082031 5 12 C4.34 12.66 3.68 13.32 3 14 C-0.44419134 4.58997722 -0.44419134 4.58997722 0 0 Z " fill="#D77778" transform="translate(271,95)"/>
<path d="M0 0 C0 0.66 0 1.32 0 2 C-0.66 2 -1.32 2 -2 2 C-2.33 2.99 -2.66 3.98 -3 5 C-3.66 5 -4.32 5 -5 5 C-5.33 5.66 -5.66 6.32 -6 7 C-7.32 6.67 -8.64 6.34 -10 6 C-8.71283353 4.99421411 -7.42011342 3.99553202 -6.125 3 C-5.40570313 2.443125 -4.68640625 1.88625 -3.9453125 1.3125 C-2 0 -2 0 0 0 Z " fill="#DA797A" transform="translate(236,206)"/>
<path d="M0 0 C-0.33 1.65 -0.66 3.3 -1 5 C-1.33 4.34 -1.66 3.68 -2 3 C-3.98 3 -5.96 3 -8 3 C-8 2.34 -8 1.68 -8 1 C-2.25 0 -2.25 0 0 0 Z " fill="#E98385" transform="translate(112,237)"/>
<path d="M0 0 C0.66 0 1.32 0 2 0 C0.66666667 4 -0.66666667 8 -2 12 C-2.33 12 -2.66 12 -3 12 C-2.88541307 10.56163249 -2.75790884 9.12429034 -2.625 7.6875 C-2.55539062 6.88699219 -2.48578125 6.08648437 -2.4140625 5.26171875 C-2 3 -2 3 0 0 Z " fill="#E68282" transform="translate(15,274)"/>
<path d="M0 0 C0.66 0 1.32 0 2 0 C0.55049545 3.7910119 -1.15172566 7.3874638 -3 11 C-4.25541557 7.23375329 -3.37061958 5.62811066 -2 2 C-1.34 2 -0.68 2 0 2 C0 1.34 0 0.68 0 0 Z " fill="#E47F80" transform="translate(106,90)"/>
<path d="M0 0 C2 1 4 2 6 3 C6 3.66 6 4.32 6 5 C6.66 5 7.32 5 8 5 C7.67 5.99 7.34 6.98 7 8 C4.35247996 5.42215154 2.05567935 3.08351902 0 0 Z " fill="#D77A7A" transform="translate(15,293)"/>
<path d="M0 0 C0 3 0 3 -1 6 C-4.0625 7.1875 -4.0625 7.1875 -7 8 C-6.02133662 6.85373678 -5.04205413 5.70800212 -4.0625 4.5625 C-3.51722656 3.92441406 -2.97195312 3.28632813 -2.41015625 2.62890625 C-1.63204305 1.73008851 -0.84063472 0.84063472 0 0 Z " fill="#E68184" transform="translate(243,198)"/>
<path d="M0 0 C0.33 0.66 0.66 1.32 1 2 C-0.32 3.65 -1.64 5.3 -3 7 C-3.99 6.67 -4.98 6.34 -6 6 C-4.02 4.02 -2.04 2.04 0 0 Z " fill="#351413" transform="translate(76,279)"/>
<path d="M0 0 C0.66 0.33 1.32 0.66 2 1 C-1.32307692 5.8 -1.32307692 5.8 -4.75 6.8125 C-5.4925 6.874375 -6.235 6.93625 -7 7 C-4.66666667 4.66666667 -2.33333333 2.33333333 0 0 Z " fill="#2E0D0C" transform="translate(246,214)"/>
<path d="M0 0 C0.33 0.66 0.66 1.32 1 2 C-0.65 3.98 -2.3 5.96 -4 8 C-4.66 7.67 -5.32 7.34 -6 7 C-4.02 4.69 -2.04 2.38 0 0 Z " fill="#DE7C7B" transform="translate(104,70)"/>
</svg>
