<?xml version="1.0" encoding="UTF-8"?>
<svg version="1.1" xmlns="http://www.w3.org/2000/svg" width="290" height="348">
<path d="M0 0 C95.7 0 191.4 0 290 0 C290 114.84 290 229.68 290 348 C194.3 348 98.6 348 0 348 C0 233.16 0 118.32 0 0 Z " fill="#FEFEFE" transform="translate(0,0)"/>
<path d="M0 0 C1.0923999 0.00563965 2.1847998 0.0112793 3.31030273 0.01708984 C33.68416785 0.4684634 60.46914726 13.25229525 81.79174805 34.7434082 C102.58099175 56.52165195 111.59089558 85.05154162 110.96386719 114.66064453 C110.34090857 133.25014037 104.79332021 149.20284314 95.875 165.3125 C95.33101563 166.29992187 94.78703125 167.28734375 94.2265625 168.3046875 C78.87418645 194.14161305 52.62440115 209.66918734 24.25 217.1875 C-4.27157093 224.1204357 -33.27647354 216.69401018 -58.125 202.3125 C-57.795 203.3025 -57.465 204.2925 -57.125 205.3125 C-56.33629312 214.46149984 -59.83887458 220.98338331 -65.125 228.3125 C-67.14283965 230.52915519 -69.27903367 232.60860846 -71.4375 234.6875 C-76.69940173 239.84073386 -76.69940173 239.84073386 -81.625 245.3125 C-86.28593065 250.80490321 -91.51029325 255.77676835 -96.6315918 260.83447266 C-97.96702411 262.15615113 -99.29459807 263.48575879 -100.62109375 264.81640625 C-126.15301174 290.26866147 -126.15301174 290.26866147 -139.1875 290.625 C-149.93433122 290.48378014 -160.17544251 284.75702259 -168.01171875 277.5859375 C-173.3692253 271.67513683 -177.41097818 264.47717715 -177.125 256.3125 C-173.96533449 225.69162396 -137.8172131 189.06880462 -115.125 170.3125 C-110.77930288 166.83926598 -107.66222297 166.17392838 -102.125 166.1875 C-101.073125 166.18492187 -100.02125 166.18234375 -98.9375 166.1796875 C-96.125 166.3125 -96.125 166.3125 -93.125 167.3125 C-94.18350397 163.65584993 -95.56383657 160.45031935 -97.375 157.125 C-110.37939554 131.50209603 -111.25733207 101.98990705 -103 74.875 C-92.98981039 46.5177763 -72.68725171 23.41872704 -45.5625 10.4375 C-30.81765397 3.62161046 -16.27568381 -0.0887926 0 0 Z " fill="#D9F5FB" transform="translate(178.125,28.6875)"/>
<path d="M0 0 C1.0923999 0.00563965 2.1847998 0.0112793 3.31030273 0.01708984 C33.68416785 0.4684634 60.46914726 13.25229525 81.79174805 34.7434082 C102.58099175 56.52165195 111.59089558 85.05154162 110.96386719 114.66064453 C110.34090857 133.25014037 104.79332021 149.20284314 95.875 165.3125 C95.33101563 166.29992187 94.78703125 167.28734375 94.2265625 168.3046875 C78.87418645 194.14161305 52.62440115 209.66918734 24.25 217.1875 C-4.27157093 224.1204357 -33.27647354 216.69401018 -58.125 202.3125 C-57.795 203.3025 -57.465 204.2925 -57.125 205.3125 C-56.33629312 214.46149984 -59.83887458 220.98338331 -65.125 228.3125 C-67.14283965 230.52915519 -69.27903367 232.60860846 -71.4375 234.6875 C-76.69940173 239.84073386 -76.69940173 239.84073386 -81.625 245.3125 C-86.28593065 250.80490321 -91.51029325 255.77676835 -96.6315918 260.83447266 C-97.96702411 262.15615113 -99.29459807 263.48575879 -100.62109375 264.81640625 C-126.15301174 290.26866147 -126.15301174 290.26866147 -139.1875 290.625 C-149.93433122 290.48378014 -160.17544251 284.75702259 -168.01171875 277.5859375 C-173.3692253 271.67513683 -177.41097818 264.47717715 -177.125 256.3125 C-173.96533449 225.69162396 -137.8172131 189.06880462 -115.125 170.3125 C-110.77930288 166.83926598 -107.66222297 166.17392838 -102.125 166.1875 C-101.073125 166.18492187 -100.02125 166.18234375 -98.9375 166.1796875 C-96.125 166.3125 -96.125 166.3125 -93.125 167.3125 C-94.18350397 163.65584993 -95.56383657 160.45031935 -97.375 157.125 C-110.37939554 131.50209603 -111.25733207 101.98990705 -103 74.875 C-92.98981039 46.5177763 -72.68725171 23.41872704 -45.5625 10.4375 C-30.81765397 3.62161046 -16.27568381 -0.0887926 0 0 Z M-67.125 34.3125 C-67.97835937 35.08335938 -68.83171875 35.85421875 -69.7109375 36.6484375 C-87.32054887 53.39111416 -99.61864894 78.10501249 -100.29296875 102.625 C-100.59098741 132.43003632 -92.45933403 156.69220935 -73.125 179.3125 C-72.55394531 179.98667969 -71.98289062 180.66085938 -71.39453125 181.35546875 C-58.30952681 195.51687459 -39.62021496 204.74874566 -21.125 209.3125 C-20.23554688 209.53679687 -19.34609375 209.76109375 -18.4296875 209.9921875 C8.07952854 215.50550024 34.6222584 209.19396582 57.25 195 C80.27218942 179.84457384 95.09087499 156.87745374 101.61328125 130.3046875 C106.81230114 103.21319611 101.20260516 75.30390775 85.953125 52.4296875 C69.2904437 29.1384213 45.90257816 13.90387628 17.64208984 8.70361328 C-13.36640589 4.32072902 -43.94030742 13.36922785 -67.125 34.3125 Z " fill="#080808" transform="translate(178.125,28.6875)"/>
<path d="M0 0 C3.46165746 2.87630431 6.74723818 5.89106779 10 9 C11.01320312 9.90105469 11.01320312 9.90105469 12.046875 10.8203125 C28.12727748 25.67860439 38.99732876 49.69809563 40.12670898 71.43920898 C40.66509383 90.30675986 39.0759588 106.83406067 31 124 C30.70996094 124.62648437 30.41992188 125.25296875 30.12109375 125.8984375 C25.4186209 135.87337992 19.46089282 143.91736612 12 152 C11.41734375 152.66386719 10.8346875 153.32773438 10.234375 154.01171875 C-2.50897998 167.81701998 -21.05107689 176.47105526 -39 181 C-40.22396484 181.33644531 -40.22396484 181.33644531 -41.47265625 181.6796875 C-65.99997025 187.35478709 -92.21684061 181.13847001 -113.765625 169.05078125 C-119.88466406 165.17095576 -125.4894478 160.69341921 -131 156 C-131.68835938 155.41605469 -132.37671875 154.83210937 -133.0859375 154.23046875 C-151.95468938 136.73479506 -162.1925372 109.46130122 -163.21875 84.32421875 C-163.47820851 74.49636458 -162.64390909 65.52265092 -160 56 C-159.59974609 54.4221875 -159.59974609 54.4221875 -159.19140625 52.8125 C-152.41340656 28.23095448 -135.97012835 6.96007302 -114 -6 C-106.09960068 -10.4196549 -97.85116285 -14.9058763 -89 -17 C-87.27910156 -17.41378906 -87.27910156 -17.41378906 -85.5234375 -17.8359375 C-55.6035772 -24.3631699 -24.47662787 -18.7584413 0 0 Z M-119 18 C-119.83273438 18.73863281 -120.66546875 19.47726563 -121.5234375 20.23828125 C-136.79758452 34.59597945 -146.4547857 54.70265669 -147.28125 75.69140625 C-147.9072397 102.88001023 -140.51881049 124.9233658 -121.5625 144.8125 C-103.56962081 162.00157359 -80.57992057 169.52395983 -56.05078125 169.21484375 C-49.74688342 169.02644064 -44.00919487 167.89844628 -38 166 C-36.87464844 165.6596875 -35.74929687 165.319375 -34.58984375 164.96875 C-13.05951347 157.9111888 5.14906277 143.49642518 15.75 123.25 C25.35622425 102.94288873 29.45064858 78.27172343 22.390625 56.4453125 C12.39143193 31.67203078 -3.5954987 12.57696985 -28.484375 1.98828125 C-32.28858889 0.49376865 -36.06587688 -0.88591204 -40 -2 C-40.69738281 -2.20625 -41.39476562 -2.4125 -42.11328125 -2.625 C-68.93673588 -9.29611825 -98.79035608 -0.0701865 -119 18 Z " fill="#FAFAFA" transform="translate(241,57)"/>
<path d="M0 0 C-0.0928125 1.7634375 -0.0928125 1.7634375 -0.1875 3.5625 C-0.17552375 10.34105542 2.77814497 14.90465772 7 20 C7 20.66 7 21.32 7 22 C7.556875 22.226875 8.11375 22.45375 8.6875 22.6875 C11 24 11 24 13.3125 26.375 C18.17531416 31.12472546 21.68312734 33.24045993 28.4375 33.25 C29.95929036 33.18649757 31.48086534 33.11003792 33 33 C32.57206718 37.80332758 30.30539618 40.31255843 27.0625 43.625 C26.06077228 44.68058582 25.05947996 45.73658499 24.05859375 46.79296875 C23.29458252 47.59033447 23.29458252 47.59033447 22.51513672 48.40380859 C20.17113279 50.8732088 17.90247054 53.40659665 15.625 55.9375 C13.29598611 58.51966758 10.95319362 61.04673347 8.4921875 63.50390625 C6.06800866 65.93188474 3.77706916 68.43428827 1.5 71 C-26.40889059 102.44663729 -26.40889059 102.44663729 -39.05078125 104.30078125 C-44.2118185 104.32752238 -47.53527538 103.8246217 -52 101 C-52.80824219 100.48953125 -53.61648437 99.9790625 -54.44921875 99.453125 C-61.36244921 94.89140213 -66.19165461 90.3841468 -68 82 C-68.71246972 67.03813598 -54.42277477 53.04261301 -45.66748047 42.09667969 C-43.28001248 39.09469212 -40.95221327 36.04874101 -38.625 33 C-37.83222656 31.97261719 -37.03945313 30.94523437 -36.22265625 29.88671875 C-34.80324816 28.04323443 -33.39337191 26.19234506 -31.99609375 24.33203125 C-27.68146408 18.70993804 -22.94529848 13.99262746 -17.61328125 9.32421875 C-15.800431 7.71189304 -14.03973911 6.03973911 -12.32421875 4.32421875 C-8.29316145 0.29316145 -5.68430247 -1.78649506 0 0 Z " fill="#FDFDFD" transform="translate(80,204)"/>
<path d="M0 0 C3.06241995 2.70179764 5.96772116 5.53844777 8.859375 8.421875 C9.59027344 9.12957031 10.32117188 9.83726563 11.07421875 10.56640625 C27.67782772 27.76182702 32.30361937 49.88326543 32.0703125 72.9375 C31.50215837 97.47334138 19.61372177 117.31289181 2.26953125 133.8984375 C-15.48396595 149.43608467 -38.41638159 155.65814986 -61.60253906 154.62158203 C-84.76632683 152.79896002 -104.79416763 140.67357034 -120.38671875 124.0234375 C-137.13570141 104.36868592 -141.93331162 80.62316118 -140.140625 55.421875 C-137.75999848 34.08440764 -125.39775446 14.09205852 -109.140625 0.421875 C-77.72870077 -23.95324206 -31.34855476 -26.53167646 0 0 Z M-107.140625 9.421875 C-107.84574219 10.05867188 -108.55085938 10.69546875 -109.27734375 11.3515625 C-122.29147431 23.69639492 -131.9144785 41.86356295 -132.5390625 59.98046875 C-132.54691962 62.27343735 -132.53892909 64.56651137 -132.515625 66.859375 C-132.52722656 67.99697266 -132.53882813 69.13457031 -132.55078125 70.30664062 C-132.47280276 93.08935675 -121.97685246 111.55763898 -106.2109375 127.35546875 C-90.88512465 141.63200396 -70.85215806 147.21811732 -50.328125 146.640625 C-29.64545342 145.71893732 -11.71483522 136.97024442 2.859375 122.421875 C3.79523438 121.50341797 3.79523438 121.50341797 4.75 120.56640625 C19.16350117 105.34133407 25.5747863 83.74917515 25.1640625 63.14453125 C23.72612886 45.57593174 16.93202117 28.3716924 4.859375 15.421875 C4.19550781 14.66777344 3.53164062 13.91367188 2.84765625 13.13671875 C-9.595174 -0.27209833 -28.96000801 -10.12531279 -47.390625 -10.9140625 C-70.1245655 -11.27645053 -90.01747124 -6.31291494 -107.140625 9.421875 Z " fill="#08090A" transform="translate(234.140625,71.578125)"/>
<path d="M0 0 C27.39 0 54.78 0 83 0 C83 10.23 83 20.46 83 31 C81.02 31 79.04 31 77 31 C76.690625 29.329375 76.690625 29.329375 76.375 27.625 C74.51343865 20.44651342 71.24198161 13.82615432 64.75 9.875 C57.43556361 6.70017562 48.79680666 7.23481753 41 8 C38.13454405 10.86545595 38.68370372 12.96814756 38.5859375 16.9765625 C38.56657135 17.66181 38.5472052 18.3470575 38.5272522 19.05307007 C38.46743169 21.24358644 38.42106244 23.4341553 38.375 25.625 C38.33682237 27.10939802 38.29777076 28.59377384 38.2578125 30.078125 C38.16172916 33.71854685 38.07770718 37.35913436 38 41 C39.72985242 40.88487847 41.45888751 40.75744323 43.1875 40.625 C44.63189453 40.52058594 44.63189453 40.52058594 46.10546875 40.4140625 C49.04400391 39.99370524 51.33392146 39.29227982 54 38 C55.39948157 36.19674821 55.39948157 36.19674821 56.25 34.0625 C56.56453125 33.37285156 56.8790625 32.68320313 57.203125 31.97265625 C57.86325791 30.33850371 58.44266437 28.67200688 59 27 C60.98 27 62.96 27 65 27 C64.67 38.88 64.34 50.76 64 63 C59 62 59 62 57.63671875 60.00390625 C57.32347656 59.19824219 57.01023438 58.39257812 56.6875 57.5625 C56.19830078 56.35787109 56.19830078 56.35787109 55.69921875 55.12890625 C55 53 55 53 55 51 C51.0740516 49.4083993 47.45840241 48.77826736 43.26953125 48.43359375 C42.28186768 48.35036865 41.2942041 48.26714355 40.27661133 48.18139648 C39.14968872 48.09160522 39.14968872 48.09160522 38 48 C38.06887495 52.21811497 38.15683738 56.43527005 38.26245117 60.65258789 C38.29569001 62.08704628 38.32372535 63.52163513 38.34643555 64.95629883 C38.38000271 67.01960807 38.43231413 69.08172303 38.48828125 71.14453125 C38.51446533 72.38565674 38.54064941 73.62678223 38.56762695 74.90551758 C38.74459717 77.96747268 38.74459717 77.96747268 40.390625 79.8828125 C42.44842859 81.31128781 44.23279283 81.72501894 46.6875 82.1875 C47.89986328 82.42533203 47.89986328 82.42533203 49.13671875 82.66796875 C49.75160156 82.77753906 50.36648437 82.88710937 51 83 C51 84.98 51 86.96 51 89 C33.84 88.67 16.68 88.34 -1 88 C-1 86.35 -1 84.7 -1 83 C-0.30132812 82.81824219 0.39734375 82.63648438 1.1171875 82.44921875 C2.02726563 82.19785156 2.93734375 81.94648438 3.875 81.6875 C4.77992188 81.44386719 5.68484375 81.20023437 6.6171875 80.94921875 C9.32113319 80.13330148 9.32113319 80.13330148 11 77 C11.31892434 74.05571475 11.31892434 74.05571475 11.29052734 70.66430664 C11.30328705 69.35607437 11.31604675 68.0478421 11.32919312 66.69996643 C11.33225041 65.2700312 11.33447836 63.840094 11.3359375 62.41015625 C11.34236427 60.94428883 11.34909254 59.4784227 11.35610962 58.01255798 C11.36808481 54.94006374 11.37179016 51.86768195 11.37060547 48.79516602 C11.37040216 44.85950771 11.39771399 40.92457061 11.43214989 36.98908329 C11.45439455 33.9615905 11.45844379 30.93427201 11.45738602 27.90670586 C11.45974529 26.45583038 11.46858726 25.00495034 11.48405075 23.55415535 C11.50365926 21.52456083 11.49536342 19.49475479 11.48583984 17.46508789 C11.48868988 16.31053604 11.49153992 15.15598419 11.49447632 13.96644592 C10.88907567 10.33454643 9.90099412 9.20345167 7 7 C3.36456099 5.72234735 3.36456099 5.72234735 0 5 C0 3.35 0 1.7 0 0 Z " fill="#060708" transform="translate(145,92)"/>
<path d="M0 0 C3.09990089 3.04404682 6.0591321 6.15260924 8.94604492 9.40283203 C13.18131286 14.15946849 17.28564391 18.37527553 22.63671875 21.9140625 C23.08660156 22.27242187 23.53648438 22.63078125 24 23 C24 23.66 24 24.32 24 25 C19.13563218 29.05363985 19.13563218 29.05363985 15.10546875 28.86328125 C8.0727487 26.90827354 2.56097585 20.48678901 -1.125 14.375 C-3.04419153 10.48217178 -3.69858616 7.36616353 -3 3 C-1.5 1.0625 -1.5 1.0625 0 0 Z " fill="#CCAA80" transform="translate(90,202)"/>
<path d="M0 0 C6.0546875 -0.1953125 6.0546875 -0.1953125 8 0 C10.35953094 2.35953094 10.49141413 3.77895617 11 7 C7.21812119 8.83691257 5.05431692 9.15837626 1 8 C0.67 5.36 0.34 2.72 0 0 Z " fill="#D0AD81" transform="translate(90,211)"/>
<path d="M0 0 C1.32 0.33 2.64 0.66 4 1 C4 1.66 4 2.32 4 3 C0.74287795 5.71426837 -1.00747528 7.03745376 -5.3125 6.875 C-6.6428125 6.441875 -6.6428125 6.441875 -8 6 C-8.33 5.34 -8.66 4.68 -9 4 C-6.69 4 -4.38 4 -2 4 C-1.34 2.68 -0.68 1.36 0 0 Z " fill="#B59E7D" transform="translate(110,224)"/>
<path d="M0 0 C2.33333333 2.33333333 4.66666667 4.66666667 7 7 C6.67 7.99 6.34 8.98 6 10 C4.68 9.67 3.36 9.34 2 9 C2 7 2 5 2 3 C0.35 3.33 -1.3 3.66 -3 4 C-2.67 3.01 -2.34 2.02 -2 1 C-1.34 0.67 -0.68 0.34 0 0 Z " fill="#BEA27F" transform="translate(90,202)"/>
<path d="M0 0 C2.76223278 2.76223278 2.57856291 5.20706617 3 9 C2.34 9 1.68 9 1 9 C0.01 6.69 -0.98 4.38 -2 2 C-1.34 2 -0.68 2 0 2 C0 1.34 0 0.68 0 0 Z " fill="#C2A480" transform="translate(89,209)"/>
</svg>
