<?xml version="1.0" encoding="UTF-8"?>
<svg version="1.1" xmlns="http://www.w3.org/2000/svg" width="290" height="344">
<path d="M0 0 C95.7 0 191.4 0 290 0 C290 113.52 290 227.04 290 344 C194.3 344 98.6 344 0 344 C0 230.48 0 116.96 0 0 Z " fill="#FEFEFE" transform="translate(0,0)"/>
<path d="M0 0 C1.21945313 0.32871094 2.43890625 0.65742187 3.6953125 0.99609375 C32.41027157 9.65853965 55.10401213 29.3026756 69.3125 55.5 C82.97189184 81.66926428 84.7068175 111.05178287 76.35058594 139.18652344 C72.05244792 152.75662731 65.26389108 165.17233243 56 176 C55.33484375 176.79792969 54.6696875 177.59585938 53.984375 178.41796875 C40.81077562 193.70029177 24.95608039 203.48384737 6 210 C4.8553125 210.44279297 4.8553125 210.44279297 3.6875 210.89453125 C-12.99886976 217.12124644 -34.83058505 217.07934972 -52 213 C-53.39412109 212.72542969 -53.39412109 212.72542969 -54.81640625 212.4453125 C-66.59432138 209.90467035 -78.07763122 204.82162854 -88 198 C-87.67 198.99 -87.34 199.98 -87 201 C-86.01553666 210.59851753 -88.84746779 217.20981211 -94.84375 224.578125 C-98.12275724 228.26106791 -101.61200673 231.70454179 -105.15625 235.12890625 C-107.29532618 237.23332932 -109.26774522 239.43473389 -111.22265625 241.7109375 C-115.5635438 246.72561504 -120.23896474 251.38511344 -124.9375 256.0625 C-125.79279297 256.92166016 -126.64808594 257.78082031 -127.52929688 258.66601562 C-132.52335009 263.65245015 -137.62258884 268.43053439 -143 273 C-143.84046875 273.73347656 -144.6809375 274.46695312 -145.546875 275.22265625 C-152.85744416 281.32775922 -161.76271098 288.26133634 -171.796875 287.44921875 C-183.82110894 284.99746892 -194.76440451 277.81131019 -202 268 C-202.433125 267.47019531 -202.86625 266.94039063 -203.3125 266.39453125 C-207.22425572 260.89362476 -206.72762402 254.45766318 -206 248 C-204.02178583 239.04858087 -198.99922243 231.55220613 -194 224 C-193.29617187 222.93652344 -192.59234375 221.87304688 -191.8671875 220.77734375 C-184.30538689 209.62436543 -176.0212012 199.00982599 -167 189 C-166.06027344 187.90558594 -166.06027344 187.90558594 -165.1015625 186.7890625 C-160.43459357 181.42812049 -155.47096795 176.44489159 -150.3125 171.5625 C-149.68279297 170.95905762 -149.05308594 170.35561523 -148.40429688 169.73388672 C-143.67559602 165.32034954 -139.88192871 162.05530974 -133.1328125 161.92578125 C-131.79530633 162.0372401 -130.45916814 162.16641376 -129.125 162.3125 C-128.43664062 162.37373047 -127.74828125 162.43496094 -127.0390625 162.49804688 C-125.35789902 162.64981858 -123.67866699 162.82273618 -122 163 C-122.50789063 162.07703125 -123.01578125 161.1540625 -123.5390625 160.203125 C-132.67083343 143.09023524 -137.17685963 126.20989501 -137.1875 106.8125 C-137.19974609 105.65685547 -137.21199219 104.50121094 -137.22460938 103.31054688 C-137.2740114 73.98221077 -125.06608443 48.78166545 -105 28 C-104.36964844 27.31808594 -103.73929687 26.63617188 -103.08984375 25.93359375 C-91.13793111 13.30355841 -74.36347617 5.22698604 -58 0 C-56.96359375 -0.34160156 -55.9271875 -0.68320312 -54.859375 -1.03515625 C-37.77677562 -5.64917493 -16.99298339 -4.67401659 0 0 Z " fill="#D9F5FA" transform="translate(208,32)"/>
<path d="M0 0 C1.21945313 0.32871094 2.43890625 0.65742187 3.6953125 0.99609375 C32.41027157 9.65853965 55.10401213 29.3026756 69.3125 55.5 C82.97189184 81.66926428 84.7068175 111.05178287 76.35058594 139.18652344 C72.05244792 152.75662731 65.26389108 165.17233243 56 176 C55.33484375 176.79792969 54.6696875 177.59585938 53.984375 178.41796875 C40.81077562 193.70029177 24.95608039 203.48384737 6 210 C4.8553125 210.44279297 4.8553125 210.44279297 3.6875 210.89453125 C-12.99886976 217.12124644 -34.83058505 217.07934972 -52 213 C-53.39412109 212.72542969 -53.39412109 212.72542969 -54.81640625 212.4453125 C-66.59432138 209.90467035 -78.07763122 204.82162854 -88 198 C-87.67 198.99 -87.34 199.98 -87 201 C-86.01553666 210.59851753 -88.84746779 217.20981211 -94.84375 224.578125 C-98.12275724 228.26106791 -101.61200673 231.70454179 -105.15625 235.12890625 C-107.29532618 237.23332932 -109.26774522 239.43473389 -111.22265625 241.7109375 C-115.5635438 246.72561504 -120.23896474 251.38511344 -124.9375 256.0625 C-125.79279297 256.92166016 -126.64808594 257.78082031 -127.52929688 258.66601562 C-132.52335009 263.65245015 -137.62258884 268.43053439 -143 273 C-143.84046875 273.73347656 -144.6809375 274.46695312 -145.546875 275.22265625 C-152.85744416 281.32775922 -161.76271098 288.26133634 -171.796875 287.44921875 C-183.82110894 284.99746892 -194.76440451 277.81131019 -202 268 C-202.433125 267.47019531 -202.86625 266.94039063 -203.3125 266.39453125 C-207.22425572 260.89362476 -206.72762402 254.45766318 -206 248 C-204.02178583 239.04858087 -198.99922243 231.55220613 -194 224 C-193.29617187 222.93652344 -192.59234375 221.87304688 -191.8671875 220.77734375 C-184.30538689 209.62436543 -176.0212012 199.00982599 -167 189 C-166.06027344 187.90558594 -166.06027344 187.90558594 -165.1015625 186.7890625 C-160.43459357 181.42812049 -155.47096795 176.44489159 -150.3125 171.5625 C-149.68279297 170.95905762 -149.05308594 170.35561523 -148.40429688 169.73388672 C-143.67559602 165.32034954 -139.88192871 162.05530974 -133.1328125 161.92578125 C-131.79530633 162.0372401 -130.45916814 162.16641376 -129.125 162.3125 C-128.43664062 162.37373047 -127.74828125 162.43496094 -127.0390625 162.49804688 C-125.35789902 162.64981858 -123.67866699 162.82273618 -122 163 C-122.50789063 162.07703125 -123.01578125 161.1540625 -123.5390625 160.203125 C-132.67083343 143.09023524 -137.17685963 126.20989501 -137.1875 106.8125 C-137.19974609 105.65685547 -137.21199219 104.50121094 -137.22460938 103.31054688 C-137.2740114 73.98221077 -125.06608443 48.78166545 -105 28 C-104.36964844 27.31808594 -103.73929687 26.63617188 -103.08984375 25.93359375 C-91.13793111 13.30355841 -74.36347617 5.22698604 -58 0 C-56.96359375 -0.34160156 -55.9271875 -0.68320312 -54.859375 -1.03515625 C-37.77677562 -5.64917493 -16.99298339 -4.67401659 0 0 Z M-104.33203125 38.0234375 C-122.52543698 58.32120494 -131.35137051 84.722917 -130.16113281 111.77978516 C-129.68896795 118.28564461 -128.40441615 124.64075116 -127 131 C-126.80664062 131.88816406 -126.61328125 132.77632813 -126.4140625 133.69140625 C-119.83971029 158.92155011 -102.09974104 180.77474848 -79.88964844 193.91845703 C-74.41529229 197.05171255 -68.89785112 199.75415811 -63 202 C-62.32614258 202.2568457 -61.65228516 202.51369141 -60.95800781 202.77832031 C-40.23210982 210.26347309 -14.2671491 209.7192353 6.3125 201.9375 C7.12009766 201.63440918 7.92769531 201.33131836 8.75976562 201.01904297 C33.07945528 191.51826586 52.33313364 173.25634058 64 150 C66.41779248 144.46706312 68.2802731 138.78235701 70 133 C70.35964844 131.84886719 70.71929687 130.69773437 71.08984375 129.51171875 C77.6543019 104.18361626 72.76643831 77.46910208 60.30859375 54.94140625 C56.15318077 48.14426901 51.22712815 41.99942456 46 36 C45.45988281 35.37480469 44.91976562 34.74960938 44.36328125 34.10546875 C29.54518654 18.16761877 4.94738721 5.82451213 -16.82202148 4.87719727 C-52.01160903 3.99538035 -79.30592805 12.39727258 -104.33203125 38.0234375 Z " fill="#080805" transform="translate(208,32)"/>
<path d="M0 0 C0.62342285 0.19867676 1.2468457 0.39735352 1.88916016 0.60205078 C28.85973287 9.36896448 49.66318998 27.03663448 62.82250977 52.29980469 C70.01204069 66.447984 73.53967716 80.70442434 73.3125 96.625 C73.31572266 97.76195312 73.31894531 98.89890625 73.32226562 100.0703125 C73.14573993 128.05765958 61.04194765 152.92301328 41.46630859 172.60400391 C37.32542503 176.54632363 32.73627063 179.81993257 28 183 C27.08992187 183.61488281 26.17984375 184.22976562 25.2421875 184.86328125 C19.2757757 188.6109856 13.06944459 191.33104132 6.5 193.8125 C5.74130615 194.1027002 4.9826123 194.39290039 4.20092773 194.69189453 C-20.27438638 203.51956927 -48.43646472 200.90903985 -71.8125 190.3125 C-96.94507798 178.11393421 -115.30480903 156.77743861 -125.1953125 130.73828125 C-126.99555067 124.61222806 -127.96664524 118.29227483 -129 112 C-129.18691406 111.01128906 -129.37382812 110.02257812 -129.56640625 109.00390625 C-132.21367461 90.66382181 -128.25031561 72.78590893 -121 56 C-120.54753906 54.94039062 -120.09507813 53.88078125 -119.62890625 52.7890625 C-108.54016918 28.85246859 -86.76327093 11.23659937 -62.5625 1.6875 C-43.25458761 -4.63605209 -19.49409011 -6.35416221 0 0 Z M-58 26 C-59.08410156 26.45761719 -60.16820312 26.91523437 -61.28515625 27.38671875 C-68.3497459 30.64661157 -74.21903296 34.82121702 -80 40 C-80.845625 40.75152344 -81.69125 41.50304687 -82.5625 42.27734375 C-96.05562881 54.9682896 -105.63397707 73.41905336 -106.43359375 92.11328125 C-106.45726652 94.17955231 -106.45812597 96.24619628 -106.4375 98.3125 C-106.42847656 99.40554443 -106.41945313 100.49858887 -106.41015625 101.62475586 C-106.02307495 119.77591194 -99.33300386 137.48065509 -87 151 C-86.22269531 151.88042969 -85.44539063 152.76085937 -84.64453125 153.66796875 C-72.81853751 166.33243767 -56.07515946 176.17921092 -38.4440918 177.13916016 C-13.90109389 177.96766744 7.34186104 174.0220708 26 157 C26.91265625 156.22462891 26.91265625 156.22462891 27.84375 155.43359375 C42.12598288 142.4822053 50.25051042 121.61098037 51.28125 102.765625 C51.9626783 81.75768909 44.89991788 61.44156246 30.75 45.75 C15.37314544 29.36819104 -4.14664784 21.21631663 -26.296875 20.47875977 C-37.78156735 20.33365562 -47.41169841 21.44498717 -58 26 Z " fill="#F9FA80" transform="translate(208,40)"/>
<path d="M0 0 C7.38952521 -0.04658928 14.77901811 -0.08200308 22.16866112 -0.10362434 C25.60093799 -0.1140078 29.03311348 -0.12806596 32.46533203 -0.15087891 C36.42218766 -0.17701074 40.37900397 -0.18651771 44.3359375 -0.1953125 C45.55300385 -0.20563507 46.77007019 -0.21595764 48.02401733 -0.22659302 C59.58468476 -0.22809793 70.84100807 1.0961252 80.3125 8.3125 C84.90346692 12.90346692 87.20945473 16.47291242 87.4375 22.9375 C87.07924749 30.10255018 85.558723 34.90342812 80.1875 39.8125 C77.03142264 42.46461291 73.71900307 44.23334091 70 46 C72.17997871 49.79603696 74.37037017 53.58596911 76.5625 57.375 C77.47612305 58.96634766 77.47612305 58.96634766 78.40820312 60.58984375 C85.54741442 74.56790256 85.54741442 74.56790256 97.6875 83.125 C98.780625 83.41375 99.87375 83.7025 101 84 C101 85.65 101 87.3 101 89 C89.45 89 77.9 89 66 89 C64.515 86.195 63.03 83.39 61.5 80.5 C61.00725586 79.57179443 60.51451172 78.64358887 60.00683594 77.68725586 C57.84758359 73.59785066 55.73539375 69.50081937 53.765625 65.31640625 C53.42337891 64.59710938 53.08113281 63.8778125 52.72851562 63.13671875 C52.09338233 61.79038829 51.47143534 60.43772804 50.86523438 59.078125 C48.71669616 54.5523793 46.39185599 52.36090704 42 50 C40.6747471 49.63586592 39.34224665 49.2954028 38 49 C38.09361965 53.07549941 38.19973161 57.15046336 38.31738281 61.2253418 C38.3556435 62.61131907 38.39050156 63.99739465 38.421875 65.38354492 C38.46758699 67.3770164 38.52658925 69.37016914 38.5859375 71.36328125 C38.6173584 72.56251221 38.6487793 73.76174316 38.68115234 74.99731445 C38.78429494 78.17882706 38.78429494 78.17882706 41 81 C43.17897492 82.00805555 43.17897492 82.00805555 45.625 82.6875 C46.44226563 82.93886719 47.25953125 83.19023437 48.1015625 83.44921875 C48.72804687 83.63097656 49.35453125 83.81273437 50 84 C50 85.65 50 87.3 50 89 C33.17 88.67 16.34 88.34 -1 88 C-0.67 86.35 -0.34 84.7 0 83 C0.61488281 82.84144531 1.22976562 82.68289062 1.86328125 82.51953125 C3.07564453 82.16955078 3.07564453 82.16955078 4.3125 81.8125 C5.11300781 81.59207031 5.91351563 81.37164062 6.73828125 81.14453125 C9.78078195 79.60488927 10.51085692 78.04979794 12 75 C12.43748247 71.9348554 12.43748247 71.9348554 12.35644531 68.60498047 C12.36094696 66.69807938 12.36094696 66.69807938 12.36553955 64.75265503 C12.3535349 63.37416171 12.34105196 61.99567248 12.328125 60.6171875 C12.3250649 59.19662679 12.32319069 57.77606308 12.32244873 56.35549927 C12.31785568 53.3848311 12.30346655 50.41443553 12.28125 47.44384766 C12.25291687 43.63620052 12.24203207 39.82876726 12.2375679 36.0210247 C12.23341208 33.09052392 12.22359407 30.1600663 12.21169281 27.22958755 C12.20599733 25.82536284 12.20123625 24.42113402 12.19742584 23.01690292 C12.19055235 21.05665349 12.1760208 19.09643541 12.16113281 17.13623047 C12.15430481 16.0210202 12.14747681 14.90580994 12.14044189 13.75680542 C12.1186699 10.91009077 12.1186699 10.91009077 11 8 C8.43957934 6.96961044 8.43957934 6.96961044 5.4375 6.3125 C4.42558594 6.06113281 3.41367188 5.80976562 2.37109375 5.55078125 C1.19740234 5.27814453 1.19740234 5.27814453 0 5 C0 3.35 0 1.7 0 0 Z " fill="#020304" transform="translate(134,93)"/>
<path d="M0 0 C-0.0928125 1.7634375 -0.0928125 1.7634375 -0.1875 3.5625 C-0.14112192 12.358876 5.19396585 19.19396585 11.1796875 25.1796875 C18.20240838 31.67474187 18.20240838 31.67474187 27.1875 34.25 C30.07852772 34.10215165 30.07852772 34.10215165 33 33 C32.58073698 38.29513663 31.04166713 40.6001716 27.375 44.375 C26.36972895 45.42572125 25.36452421 46.47650594 24.359375 47.52734375 C23.81732422 48.08534668 23.27527344 48.64334961 22.71679688 49.21826172 C20.91838736 51.08469981 19.1517574 52.97727797 17.390625 54.87890625 C10.80577112 61.98318703 4.14103571 68.98165549 -2.78857422 75.75170898 C-5.02274011 77.94780487 -7.10800755 80.13680957 -9.05078125 82.59765625 C-15.46673031 90.50508846 -30.74598642 104.16299843 -41.25 105.375 C-49.46035711 104.55396429 -56.01003561 99.42286717 -62 94 C-65.95948832 89.02525826 -68.16017948 84.66229336 -67.7734375 78.234375 C-67.17646603 74.01462023 -65.57877333 70.69950398 -63.3125 67.125 C-62.92094727 66.49062012 -62.52939453 65.85624023 -62.12597656 65.20263672 C-57.23380789 57.49065042 -51.4963545 50.41420083 -45.80517578 43.28613281 C-43.43811112 40.2884058 -41.13942351 37.24180723 -38.84057617 34.19165039 C-33.52979339 27.15060815 -28.11681577 20.3680197 -22 14 C-21.30003906 13.25363281 -20.60007813 12.50726563 -19.87890625 11.73828125 C-18 10 -18 10 -16 10 C-15.62101562 9.11054688 -15.62101562 9.11054688 -15.234375 8.203125 C-12.0881286 2.58767257 -6.44656974 -0.96698546 0 0 Z " fill="#FCFD7F" transform="translate(80,203)"/>
<path d="M0 0 C19.26836983 15.61230598 31.48535404 35.60759239 34.71484375 60.4921875 C36.44015107 84.36287782 29.43063207 106.72720504 14.41796875 125.33984375 C-0.36820763 142.24197295 -19.95023821 153.73382467 -42.62207031 155.7956543 C-45.97427168 155.9273797 -49.30556918 155.96057644 -52.66015625 155.9296875 C-53.84262939 155.92066406 -55.02510254 155.91164062 -56.2434082 155.90234375 C-76.0826491 155.5097844 -92.93641469 147.85508063 -108.28515625 135.4921875 C-109.26484375 134.71875 -110.24453125 133.9453125 -111.25390625 133.1484375 C-126.72680959 120.13926232 -136.79324955 98.56752593 -138.53515625 78.63085938 C-139.81593573 54.31205898 -134.20560803 31.78140725 -117.78515625 13.2421875 C-116.29120587 11.6531448 -114.79169384 10.06930162 -113.28515625 8.4921875 C-112.74503906 7.87730469 -112.20492187 7.26242188 -111.6484375 6.62890625 C-84.10147538 -23.55479279 -31.28656494 -24.45198896 0 0 Z M-82.28515625 -3.5078125 C-83.36925781 -3.05019531 -84.45335937 -2.59257813 -85.5703125 -2.12109375 C-92.63490215 1.13879907 -98.50418921 5.31340452 -104.28515625 10.4921875 C-105.13078125 11.24371094 -105.97640625 11.99523437 -106.84765625 12.76953125 C-120.34078506 25.4604771 -129.91913332 43.91124086 -130.71875 62.60546875 C-130.74242277 64.67173981 -130.74328222 66.73838378 -130.72265625 68.8046875 C-130.71363281 69.89773193 -130.70460938 70.99077637 -130.6953125 72.11694336 C-130.3082312 90.26809944 -123.61816011 107.97284259 -111.28515625 121.4921875 C-110.50785156 122.37261719 -109.73054688 123.25304687 -108.9296875 124.16015625 C-97.10369376 136.82462517 -80.36031571 146.67139842 -62.72924805 147.63134766 C-38.18625014 148.45985494 -16.94329521 144.5142583 1.71484375 127.4921875 C2.6275 126.71681641 2.6275 126.71681641 3.55859375 125.92578125 C17.84082663 112.9743928 25.96535417 92.10316787 26.99609375 73.2578125 C27.67752205 52.24987659 20.61476163 31.93374996 6.46484375 16.2421875 C-8.91201081 -0.13962146 -28.43180409 -8.29149587 -50.58203125 -9.02905273 C-62.0667236 -9.17415688 -71.69685466 -8.06282533 -82.28515625 -3.5078125 Z " fill="#090A08" transform="translate(232.28515625,69.5078125)"/>
<path d="M0 0 C4.74955268 1.55273838 6.78673193 3.57372657 9.17089844 7.94262695 C10.64614867 11.60338481 10.57804503 15.1635003 10.5 19.0625 C10.51546875 19.83916016 10.5309375 20.61582031 10.546875 21.41601562 C10.51089961 26.72688271 9.50265372 29.79681554 6 34 C1.63226291 37.08937501 -1.88047054 38.13142246 -7.1875 38.0625 C-8.08855469 38.05347656 -8.98960937 38.04445312 -9.91796875 38.03515625 C-10.60503906 38.02355469 -11.29210937 38.01195312 -12 38 C-12.09900135 33.23118124 -12.17152928 28.4629627 -12.21972656 23.69335938 C-12.23982144 22.07150857 -12.26710254 20.44973003 -12.30175781 18.828125 C-12.3503727 16.4946102 -12.37298889 14.16205443 -12.390625 11.828125 C-12.41127014 11.10506165 -12.43191528 10.38199829 -12.45318604 9.63702393 C-12.45469879 6.23019531 -12.23896319 4.33009655 -10.21777344 1.53808594 C-6.92016987 -0.74889144 -3.81864298 -0.58975181 0 0 Z " fill="#D4EFF4" transform="translate(184,99)"/>
<path d="M0 0 C4.01345322 1.55871323 6.37259733 4.39318567 9.125 7.5625 C13.53474792 12.53201316 18.12931222 16.95272857 23.19921875 21.2578125 C23.79347656 21.83273438 24.38773438 22.40765625 25 23 C25 23.66 25 24.32 25 25 C22.44056636 26.95721396 20.33463792 27.92563602 17.1875 28.625 C10.02256473 27.22011073 5.34099067 20.53750396 1.2265625 14.89453125 C-1.45007792 10.76022996 -2.42645003 8.0107879 -2 3 C-1.34 2.01 -0.68 1.02 0 0 Z " fill="#CCAB81" transform="translate(89,202)"/>
<path d="M0 0 C0.33 0.99 0.66 1.98 1 3 C-0.3125 5.1875 -0.3125 5.1875 -2 7 C-2.66 7 -3.32 7 -4 7 C-4.226875 8.03125 -4.45375 9.0625 -4.6875 10.125 C-5.86471856 14.34408258 -8.04838971 16.81536784 -11 20 C-11.66 19.67 -12.32 19.34 -13 19 C-11.58684299 16.76854054 -10.16962358 14.53984045 -8.75 12.3125 C-8.35425781 11.68666016 -7.95851563 11.06082031 -7.55078125 10.41601562 C-5.21943463 6.76612051 -2.77880144 3.33328705 0 0 Z " fill="#ECED89" transform="translate(29,253)"/>
<path d="M0 0 C0.75925781 0.08378906 1.51851563 0.16757813 2.30078125 0.25390625 C3.29464844 0.35574219 4.28851563 0.45757812 5.3125 0.5625 C6.29863281 0.66691406 7.28476563 0.77132812 8.30078125 0.87890625 C11.09930347 1.16602527 11.09930347 1.16602527 14 0 C13.50769231 5.53846154 13.50769231 5.53846154 10.9375 7.875 C10.298125 8.24625 9.65875 8.6175 9 9 C9 7.35 9 5.7 9 4 C4.545 3.01 4.545 3.01 0 2 C0 1.34 0 0.68 0 0 Z " fill="#F6F68C" transform="translate(99,236)"/>
<path d="M0 0 C5.30101923 4.00808771 9.06969212 8.66268841 13 14 C12.34 14.66 11.68 15.32 11 16 C7.125 11.25 7.125 11.25 6 9 C5.360625 8.773125 4.72125 8.54625 4.0625 8.3125 C2 7 2 7 0.75 3.375 C0.5025 2.26125 0.255 1.1475 0 0 Z " fill="#E9EA86" transform="translate(251,66)"/>
<path d="M0 0 C-0.061875 1.134375 -0.12375 2.26875 -0.1875 3.4375 C-0.21380222 8.33847991 1.23987606 12.473967 3 17 C-0.81402003 14.53934192 -0.81402003 14.53934192 -1.625 12.1875 C-2.02932424 9.82894194 -2.09766899 7.6414911 -2.0625 5.25 C-2.05347656 4.45078125 -2.04445313 3.6515625 -2.03515625 2.828125 C-2.02355469 2.22484375 -2.01195313 1.6215625 -2 1 C-3.98 1.99 -3.98 1.99 -6 3 C-6.66 2.34 -7.32 1.68 -8 1 C-5.29120665 -0.35439668 -2.99066732 -0.06501451 0 0 Z M-8 3 C-7.34 3.33 -6.68 3.66 -6 4 C-6.99 4 -7.98 4 -9 4 C-8.67 3.67 -8.34 3.34 -8 3 Z " fill="#EEF08F" transform="translate(80,203)"/>
<path d="M0 0 C0 4.5864854 -2.75962848 6.61984673 -5.75390625 9.90234375 C-8.70241499 12.65599452 -11.1783501 13.80573441 -15 15 C-13.81402252 11.44206755 -12.72223632 10.80004711 -9.75 8.625 C-6.19118 5.95162804 -3.04388149 3.24026094 0 0 Z " fill="#EFF08D" transform="translate(244,197)"/>
<path d="M0 0 C2.62187494 1.04874998 3.79371361 1.64931313 5.25 4.125 C5.4975 4.74375 5.745 5.3625 6 6 C5.01 7.485 5.01 7.485 4 9 C3.67 8.01 3.34 7.02 3 6 C2.34 6 1.68 6 1 6 C0.67 5.34 0.34 4.68 0 4 C-0.33 5.65 -0.66 7.3 -1 9 C-1.33 9 -1.66 9 -2 9 C-2.25 3.375 -2.25 3.375 0 0 Z " fill="#C8A87F" transform="translate(89,202)"/>
<path d="M0 0 C0.433125 0.495 0.86625 0.99 1.3125 1.5 C2.99740483 3.33218192 2.99740483 3.33218192 6 3 C4.68 5.64 3.36 8.28 2 11 C-0.10814567 6.78370866 -0.17700355 4.60209225 0 0 Z " fill="#EFF083" transform="translate(267,176)"/>
<path d="M0 0 C0.56203125 0.14308594 1.1240625 0.28617188 1.703125 0.43359375 C4.04545453 1.01120902 6.39417659 1.54283307 8.75 2.0625 C9.54921875 2.23910156 10.3484375 2.41570312 11.171875 2.59765625 C11.77515625 2.73042969 12.3784375 2.86320313 13 3 C11 5 11 5 8.1875 5.4375 C4.02289871 4.86588806 2.66580904 3.13624593 0 0 Z " fill="#C0A685" transform="translate(98,225)"/>
<path d="M0 0 C0.33 0.66 0.66 1.32 1 2 C0.2884375 2.61875 0.2884375 2.61875 -0.4375 3.25 C-2.16266518 5.182185 -2.56584875 6.48192275 -3 9 C-4.32 7.35 -5.64 5.7 -7 4 C-4.77810176 1.77810176 -2.91517292 1.07401108 0 0 Z " fill="#D3E8EC" transform="translate(210,135)"/>
<path d="M0 0 C0.33 0.99 0.66 1.98 1 3 C-1.3125 6.1875 -1.3125 6.1875 -4 9 C-4.66 9 -5.32 9 -6 9 C-4.47291037 5.56404834 -2.40072955 2.88087546 0 0 Z " fill="#ECF086" transform="translate(37,243)"/>
<path d="M0 0 C0.68359375 1.671875 0.68359375 1.671875 1 4 C-0.21484375 6.578125 -0.21484375 6.578125 -1.9375 9.25 C-2.50339844 10.14203125 -3.06929688 11.0340625 -3.65234375 11.953125 C-4.09707031 12.62859375 -4.54179687 13.3040625 -5 14 C-5.33 13.34 -5.66 12.68 -6 12 C-4.78515625 9.1796875 -4.78515625 9.1796875 -3.0625 5.875 C-2.49660156 4.77929688 -1.93070312 3.68359375 -1.34765625 2.5546875 C-0.90292969 1.71164063 -0.45820313 0.86859375 0 0 Z " fill="#ECED8F" transform="translate(261,170)"/>
<path d="M0 0 C0.33 0.99 0.66 1.98 1 3 C-0.375 5.6875 -0.375 5.6875 -2 8 C-2.33 8 -2.66 8 -3 8 C-3.1875 5.125 -3.1875 5.125 -3 2 C-2.01 1.34 -1.02 0.68 0 0 Z " fill="#E9EA8D" transform="translate(112,236)"/>
<path d="M0 0 C3.63 0.33 7.26 0.66 11 1 C11 1.33 11 1.66 11 2 C7.37 2.33 3.74 2.66 0 3 C0 2.01 0 1.02 0 0 Z " fill="#F7F990" transform="translate(161,224)"/>
<path d="M0 0 C1.32 0.66 2.64 1.32 4 2 C3.360625 2.226875 2.72125 2.45375 2.0625 2.6875 C-0.27193661 3.85250896 -0.27193661 3.85250896 -0.75 6.625 C-0.8325 7.40875 -0.915 8.1925 -1 9 C-1.33 9 -1.66 9 -2 9 C-2.25 3.375 -2.25 3.375 0 0 Z " fill="#B4A07F" transform="translate(89,202)"/>
<path d="M0 0 C1.65 1.65 3.3 3.3 5 5 C3.68 5.99 2.36 6.98 1 8 C0.02391783 5.07175348 -0.08226668 3.04386724 0 0 Z " fill="#EDEE87" transform="translate(107,186)"/>
<path d="M0 0 C0.99 0 1.98 0 3 0 C1.60667426 3.36720387 0.0210714 4.9859524 -3 7 C-3 5.68 -3 4.36 -3 3 C-2.01 3 -1.02 3 0 3 C0 2.01 0 1.02 0 0 Z " fill="#E7E885" transform="translate(116,77)"/>
<path d="M0 0 C3.465 1.98 3.465 1.98 7 4 C6.34 4.66 5.68 5.32 5 6 C4.01 6 3.02 6 2 6 C1.34 4.02 0.68 2.04 0 0 Z " fill="#EBEB84" transform="translate(232,51)"/>
<path d="M0 0 C0.66 0.33 1.32 0.66 2 1 C0.3125 3.0625 0.3125 3.0625 -2 5 C-4.75 4.75 -4.75 4.75 -7 4 C-6.1028125 3.566875 -6.1028125 3.566875 -5.1875 3.125 C-2.80672208 1.95257974 -2.80672208 1.95257974 0 0 Z " fill="#170B05" transform="translate(112,227)"/>
<path d="M0 0 C-0.33 0.99 -0.66 1.98 -1 3 C-1 2.34 -1 1.68 -1 1 C-2.65 1.66 -4.3 2.32 -6 3 C-6.66 2.34 -7.32 1.68 -8 1 C-5.29120665 -0.35439668 -2.99066732 -0.06501451 0 0 Z M-8 3 C-7.34 3.33 -6.68 3.66 -6 4 C-6.99 4 -7.98 4 -9 4 C-8.67 3.67 -8.34 3.34 -8 3 Z " fill="#DEE182" transform="translate(80,203)"/>
</svg>
