<?xml version="1.0" encoding="UTF-8"?>
<svg version="1.1" xmlns="http://www.w3.org/2000/svg" width="291" height="344">
<path d="M0 0 C96.03 0 192.06 0 291 0 C291 113.52 291 227.04 291 344 C194.97 344 98.94 344 0 344 C0 230.48 0 116.96 0 0 Z " fill="#FEFEFE" transform="translate(0,0)"/>
<path d="M0 0 C21.46298701 18.17162689 34.53169842 40.57029367 40 68 C40.1743457 68.79253174 40.34869141 69.58506348 40.52832031 70.40161133 C45.2841849 96.60071422 36.80255053 124.80544853 23 147 C14.58304194 159.01053598 3.46991344 170.24732356 -9 178 C-9.763125 178.50789062 -10.52625 179.01578125 -11.3125 179.5390625 C-23.18270147 187.153172 -36.35638585 190.99717296 -50 194 C-50.77754639 194.1757959 -51.55509277 194.3515918 -52.35620117 194.53271484 C-80.04870407 199.42729888 -104.89486866 190.47030543 -129 178 C-128.34 178.99 -127.68 179.98 -127 181 C-125.99858241 188.86828103 -128.40145001 196.30086744 -133.23730469 202.61572266 C-136.13723284 206.02565233 -139.26279938 209.20658527 -142.41699219 212.37988281 C-144.46216455 214.47299876 -146.41026823 216.6442294 -148.36132812 218.82470703 C-152.35181121 223.27962397 -156.45719669 227.39551731 -161.05078125 231.234375 C-163.33401419 233.30255393 -165.29529277 235.54717856 -167.3125 237.875 C-171.28854712 242.39168003 -175.5843626 246.1127953 -180.30078125 249.8359375 C-182.85935836 251.88724245 -185.27379983 254.03155613 -187.6875 256.25 C-194.54682113 262.40989125 -201.89259717 267.6280622 -211.4140625 267.375 C-222.49979868 265.7674008 -233.90868262 258.59727777 -240.75 249.79296875 C-241.36875 248.90544922 -241.36875 248.90544922 -242 248 C-242.61875 247.12794922 -242.61875 247.12794922 -243.25 246.23828125 C-246.88946242 240.21042161 -246.91216371 233.84519379 -246 227 C-243.67581377 219.01864559 -239.48806058 211.93997016 -235 205 C-234.42636719 204.08863281 -233.85273438 203.17726562 -233.26171875 202.23828125 C-228.15756811 194.3231491 -222.40049259 187.04068254 -216.43994141 179.76025391 C-215.12394989 178.15152233 -213.81733639 176.53513094 -212.51171875 174.91796875 C-206.12229276 167.02774494 -199.79612135 159.2601396 -192.01171875 152.69921875 C-190.61612585 151.52041698 -189.2450171 150.3122512 -187.89453125 149.08203125 C-182.08542883 143.79607502 -178.2849742 141.76131508 -170.37890625 141.83203125 C-167.54479121 142.03214118 -164.79481504 142.49733542 -162 143 C-162.51949219 142.00742188 -163.03898437 141.01484375 -163.57421875 139.9921875 C-176.85771702 114.25740245 -181.82381647 88.44733879 -175 60 C-174.73316406 58.83082031 -174.46632813 57.66164063 -174.19140625 56.45703125 C-167.57881771 30.44751634 -149.62618618 6.61964347 -126.76220703 -7.36914062 C-86.75922358 -30.58864275 -36.64989226 -29.96234008 0 0 Z " fill="#D9F5FB" transform="translate(248,52)"/>
<path d="M0 0 C21.46298701 18.17162689 34.53169842 40.57029367 40 68 C40.1743457 68.79253174 40.34869141 69.58506348 40.52832031 70.40161133 C45.2841849 96.60071422 36.80255053 124.80544853 23 147 C14.58304194 159.01053598 3.46991344 170.24732356 -9 178 C-9.763125 178.50789062 -10.52625 179.01578125 -11.3125 179.5390625 C-23.18270147 187.153172 -36.35638585 190.99717296 -50 194 C-50.77754639 194.1757959 -51.55509277 194.3515918 -52.35620117 194.53271484 C-80.04870407 199.42729888 -104.89486866 190.47030543 -129 178 C-128.34 178.99 -127.68 179.98 -127 181 C-125.99858241 188.86828103 -128.40145001 196.30086744 -133.23730469 202.61572266 C-136.13723284 206.02565233 -139.26279938 209.20658527 -142.41699219 212.37988281 C-144.46216455 214.47299876 -146.41026823 216.6442294 -148.36132812 218.82470703 C-152.35181121 223.27962397 -156.45719669 227.39551731 -161.05078125 231.234375 C-163.33401419 233.30255393 -165.29529277 235.54717856 -167.3125 237.875 C-171.28854712 242.39168003 -175.5843626 246.1127953 -180.30078125 249.8359375 C-182.85935836 251.88724245 -185.27379983 254.03155613 -187.6875 256.25 C-194.54682113 262.40989125 -201.89259717 267.6280622 -211.4140625 267.375 C-222.49979868 265.7674008 -233.90868262 258.59727777 -240.75 249.79296875 C-241.36875 248.90544922 -241.36875 248.90544922 -242 248 C-242.61875 247.12794922 -242.61875 247.12794922 -243.25 246.23828125 C-246.88946242 240.21042161 -246.91216371 233.84519379 -246 227 C-243.67581377 219.01864559 -239.48806058 211.93997016 -235 205 C-234.42636719 204.08863281 -233.85273438 203.17726562 -233.26171875 202.23828125 C-228.15756811 194.3231491 -222.40049259 187.04068254 -216.43994141 179.76025391 C-215.12394989 178.15152233 -213.81733639 176.53513094 -212.51171875 174.91796875 C-206.12229276 167.02774494 -199.79612135 159.2601396 -192.01171875 152.69921875 C-190.61612585 151.52041698 -189.2450171 150.3122512 -187.89453125 149.08203125 C-182.08542883 143.79607502 -178.2849742 141.76131508 -170.37890625 141.83203125 C-167.54479121 142.03214118 -164.79481504 142.49733542 -162 143 C-162.51949219 142.00742188 -163.03898437 141.01484375 -163.57421875 139.9921875 C-176.85771702 114.25740245 -181.82381647 88.44733879 -175 60 C-174.73316406 58.83082031 -174.46632813 57.66164063 -174.19140625 56.45703125 C-167.57881771 30.44751634 -149.62618618 6.61964347 -126.76220703 -7.36914062 C-86.75922358 -30.58864275 -36.64989226 -29.96234008 0 0 Z M-146.59765625 19.9296875 C-160.97202831 37.34330707 -168.58227263 57.60292394 -170 80 C-170.0505957 80.71913574 -170.10119141 81.43827148 -170.15332031 82.17919922 C-171.18548794 98.84610747 -167.33774127 115.01509463 -160 130 C-159.57203125 130.89460937 -159.1440625 131.78921875 -158.703125 132.7109375 C-146.39707672 156.83908835 -124.67847215 174.16498877 -99.38452148 183.26196289 C-89.18184089 186.4198111 -79.27007056 187.52733784 -68.625 187.4375 C-66.72210205 187.42614014 -66.72210205 187.42614014 -64.78076172 187.41455078 C-55.23113619 187.24697057 -46.99402254 186.24951821 -38 183 C-37.3699707 182.78037598 -36.73994141 182.56075195 -36.09082031 182.33447266 C-9.73459697 173.04735456 11.7707475 154.46803406 23.92822266 129.26733398 C34.36552496 106.19403758 37.35026972 79.21758051 29 55 C28.76394043 54.30261719 28.52788086 53.60523437 28.28466797 52.88671875 C18.9237869 26.0896124 -0.53784746 5.33175627 -26 -7 C-68.3730484 -25.5647804 -115.86861645 -14.7271243 -146.59765625 19.9296875 Z " fill="#09060A" transform="translate(248,52)"/>
<path d="M0 0 C27.52774122 -1.12044278 53.70930723 9.48721954 73.88671875 27.921875 C88.25831581 41.54606086 98.46394643 58.94183979 103.13671875 78.234375 C103.31114502 78.94513184 103.48557129 79.65588867 103.6652832 80.38818359 C109.37168252 105.74144769 104.0975422 132.27147799 91.2265625 154.5390625 C86.84375971 161.38773644 81.74454195 167.36711514 76.13671875 173.234375 C75.23566406 174.24757812 75.23566406 174.24757812 74.31640625 175.28125 C60.168714 190.59260525 36.01391288 202.1653412 15.17675781 203.41137695 C-16.03484801 203.99548917 -42.48678817 198.28925274 -65.73828125 176.31689453 C-82.31896829 160.22354526 -91.43912652 141.46815456 -96.86328125 119.234375 C-97.06824219 118.3990625 -97.27320312 117.56375 -97.484375 116.703125 C-101.48644618 90.62777466 -93.87140248 62.5267875 -78.49511719 41.35009766 C-62.85390539 21.02727229 -39.64673531 5.04498145 -13.86328125 1.234375 C-13.16074219 1.12480469 -12.45820313 1.01523437 -11.734375 0.90234375 C-7.83495957 0.40749408 -3.92223494 0.23795156 0 0 Z M-57.4765625 53.0859375 C-71.87822655 72.08387732 -76.19927031 93.12111866 -73.59521484 116.65722656 C-71.34842554 130.63371786 -64.39602296 144.78649008 -54.86328125 155.234375 C-53.67992187 156.57242188 -53.67992187 156.57242188 -52.47265625 157.9375 C-38.93507329 172.42508878 -20.4353376 180.74879847 -0.63671875 181.453125 C9.28504883 181.67730736 18.70853959 181.69693637 28.13671875 178.234375 C29.11382812 177.88246094 30.0909375 177.53054687 31.09765625 177.16796875 C51.4716292 169.2331181 66.51399819 156.09741469 75.859375 136.1640625 C84.13624059 117.18042583 85.94742441 96.9935509 79.13671875 77.234375 C70.97513119 56.65605349 57.07791329 40.81311473 37.13671875 31.234375 C3.22903055 16.72366127 -33.19621802 25.16940616 -57.4765625 53.0859375 Z " fill="#DBA8F8" transform="translate(175.86328125,35.765625)"/>
<path d="M0 0 C7.63301877 -0.04661337 15.26602253 -0.0820151 22.8991518 -0.10362434 C26.44461963 -0.11400264 29.98998913 -0.12805106 33.53540039 -0.15087891 C37.62386955 -0.17703461 41.71223758 -0.18652192 45.80078125 -0.1953125 C47.68426018 -0.21079636 47.68426018 -0.21079636 49.60578918 -0.22659302 C64.33527318 -0.2284466 79.40527201 2.16260183 91 11.98828125 C100.74367524 21.78904834 103.82615731 32.60467321 104.3125 46.125 C104.18296478 57.40751776 100.69844407 67.63916591 93 76 C83.76605911 84.06999876 71.46073148 89.27432143 59.14672852 89.22705078 C58.50197067 89.22734283 57.85721283 89.22763489 57.19291687 89.22793579 C55.08810374 89.22655626 52.98365658 89.21106128 50.87890625 89.1953125 C49.40917657 89.19157745 47.93944438 89.1887328 46.4697113 89.18673706 C42.62115477 89.1791393 38.77275171 89.15952447 34.92425537 89.1373291 C30.98923823 89.11678708 27.05419605 89.10771755 23.11914062 89.09765625 C15.41269082 89.0762745 7.706367 89.04218578 0 89 C0 87.02 0 85.04 0 83 C0.69867188 82.81824219 1.39734375 82.63648438 2.1171875 82.44921875 C3.02726563 82.19785156 3.93734375 81.94648438 4.875 81.6875 C5.77992188 81.44386719 6.68484375 81.20023437 7.6171875 80.94921875 C10.32113319 80.13330148 10.32113319 80.13330148 12 77 C12.31892434 74.05571475 12.31892434 74.05571475 12.29052734 70.66430664 C12.30328705 69.35607437 12.31604675 68.0478421 12.32919312 66.69996643 C12.33225041 65.2700312 12.33447836 63.840094 12.3359375 62.41015625 C12.34236427 60.94428883 12.34909254 59.4784227 12.35610962 58.01255798 C12.36808481 54.94006374 12.37179016 51.86768195 12.37060547 48.79516602 C12.37040216 44.85950771 12.39771399 40.92457061 12.43214989 36.98908329 C12.45439455 33.9615905 12.45844379 30.93427201 12.45738602 27.90670586 C12.45974529 26.45583038 12.46858726 25.00495034 12.48405075 23.55415535 C12.50365926 21.52456083 12.49536342 19.49475479 12.48583984 17.46508789 C12.48868988 16.31053604 12.49153992 15.15598419 12.49447632 13.96644592 C11.89431826 10.36599761 10.82508503 9.23135606 8 7 C5.90324347 5.91590916 5.90324347 5.91590916 3.75 5.25 C2.5125 4.8375 1.275 4.425 0 4 C0 2.68 0 1.36 0 0 Z " fill="#040506" transform="translate(133,95)"/>
<path d="M0 0 C-0.04640625 0.556875 -0.0928125 1.11375 -0.140625 1.6875 C-0.55950245 10.54376606 2.52112309 15.49771652 8.1875 22.125 C15.37846553 29.86358823 15.37846553 29.86358823 25.01171875 33.359375 C27.70531244 33.37317061 30.32125699 33.2703778 33 33 C31.63781179 42.34071914 23.37572621 48.83113064 16.88378906 55.13085938 C14.0310693 57.9088278 11.31987574 60.73818808 8.72265625 63.7578125 C-2.81694597 77.10695444 -15.60830498 89.75373887 -30 100 C-30.763125 100.59296875 -31.52625 101.1859375 -32.3125 101.796875 C-35.79904453 104.33006751 -38.21285873 105.33252807 -42.5625 105.0625 C-46.91062933 104.25233573 -50.40692215 102.53900576 -54 100 C-55.13501953 99.23816406 -55.13501953 99.23816406 -56.29296875 98.4609375 C-62.94300761 93.70935998 -66.42603663 89.00902602 -67.9375 80.9375 C-68.04915807 73.90304166 -64.13941537 68.19033182 -60.5 62.375 C-59.84414917 61.32578369 -59.84414917 61.32578369 -59.17504883 60.25537109 C-55.91160792 55.15932463 -52.30875395 50.57747593 -48.29638672 46.05810547 C-45.1276454 42.45274805 -42.36638169 38.71014379 -39.66308594 34.74560547 C-33.82416987 26.22078801 -27.24465073 18.76988054 -19.9375 11.5 C-19.02049316 10.58541016 -18.10348633 9.67082031 -17.15869141 8.72851562 C-7.86402559 -0.35745571 -7.86402559 -0.35745571 0 0 Z " fill="#DEA9FB" transform="translate(80,203)"/>
<path d="M0 0 C3.89101406 2.71147527 7.51714435 5.6678942 11.10205078 8.77001953 C11.77494141 9.34236328 12.44783203 9.91470703 13.14111328 10.50439453 C26.54436239 22.86720877 36.98096643 42.79666358 38.34472656 61.01123047 C39.43639649 89.06597382 33.43535792 112.34642972 14.26220703 133.50830078 C-0.6634991 149.30098465 -22.62929305 158.65246583 -44.20898438 159.30908203 C-70.07227068 159.49551209 -91.29607239 151.26142967 -110.02294922 133.14501953 C-126.63393911 116.38224599 -134.09060775 94.66832563 -134.33544922 71.33251953 C-134.19519413 48.12885429 -125.32587638 27.60662273 -109.20263672 10.99267578 C-97.94526128 0.32863779 -84.85277379 -7.21884148 -69.89794922 -11.22998047 C-68.92083984 -11.57931641 -67.94373047 -11.92865234 -66.93701172 -12.28857422 C-45.19668888 -18.47042083 -18.57432236 -12.03723129 0 0 Z M-109.51123047 22.62158203 C-123.91289452 41.61952185 -128.23393828 62.6567632 -125.62988281 86.19287109 C-123.38309351 100.16936239 -116.43069093 114.32213461 -106.89794922 124.77001953 C-105.71458984 126.10806641 -105.71458984 126.10806641 -104.50732422 127.47314453 C-90.96974126 141.96073331 -72.47000557 150.284443 -52.67138672 150.98876953 C-42.74961914 151.21295189 -33.32612838 151.2325809 -23.89794922 147.77001953 C-22.92083984 147.41810547 -21.94373047 147.06619141 -20.93701172 146.70361328 C-0.56303877 138.76876263 14.47933023 125.63305922 23.82470703 105.69970703 C32.10157262 86.71607036 33.91275644 66.52919543 27.10205078 46.77001953 C18.94046323 26.19169802 5.04324532 10.34875926 -14.89794922 0.77001953 C-48.80563742 -13.7406942 -85.23088598 -5.29494931 -109.51123047 22.62158203 Z " fill="#09070C" transform="translate(227.89794921875,66.22998046875)"/>
<path d="M0 0 C6.55959605 2.03364785 11.32663134 5.21166151 15 11 C21.02205258 24.89899899 21.45587024 45.22423493 16.9765625 59.625 C14.30913591 66.11218146 10.96498508 71.09981745 5 75 C-1.28518324 77.30859615 -9.8890218 78.64151143 -16.23046875 76.109375 C-18 75 -18 75 -19 73 C-19.1175324 70.83638312 -19.16982875 68.66912572 -19.19287109 66.50244141 C-19.20104858 65.83557816 -19.20922607 65.1687149 -19.21765137 64.48164368 C-19.24249355 62.27162577 -19.25901708 60.06167198 -19.2734375 57.8515625 C-19.27876118 57.09714245 -19.28408485 56.3427224 -19.28956985 55.56544113 C-19.31629475 51.57326015 -19.33567278 47.58111039 -19.35009766 43.58886719 C-19.36675571 39.46366167 -19.41154373 35.33925351 -19.4624691 31.21434975 C-19.49610658 28.04362052 -19.50767104 24.87308152 -19.51332474 21.7021904 C-19.52004568 20.18150097 -19.53528987 18.66082443 -19.55921555 17.14030838 C-19.59080255 15.01165775 -19.59091566 12.88517065 -19.58349609 10.75634766 C-19.59158295 9.54548492 -19.5996698 8.33462219 -19.60800171 7.08706665 C-19 4 -19 4 -16.66348267 1.61312866 C-11.52202321 -1.5007777 -5.78961645 -0.72527875 0 0 Z " fill="#DAF6FB" transform="translate(191,101)"/>
<path d="M0 0 C2.93948259 2.85040736 5.70133367 5.77282281 8.375 8.875 C11.74770574 12.76827554 15.32030505 16.39896837 19 20 C19.98040065 20.97793113 20.95971147 21.95695713 21.9375 22.9375 C22.618125 23.618125 23.29875 24.29875 24 25 C22.09998313 27.57061106 20.82702883 28.0489541 17.6875 28.9375 C11.6851172 29.0392353 8.57007396 25.64160052 4.375 21.75 C0.11919187 17.34320977 -2.61428859 12.86528479 -3.4375 6.75 C-2.95038977 3.68816428 -2.08330748 2.25691644 0 0 Z " fill="#CAAA81" transform="translate(90,201)"/>
<path d="M0 0 C0.33 0.66 0.66 1.32 1 2 C-0.07507629 3.29854721 -1.16043736 4.58858361 -2.25 5.875 C-2.85328125 6.59429687 -3.4565625 7.31359375 -4.078125 8.0546875 C-5.97087634 9.97052118 -7.53657727 10.96449045 -10 12 C-10 12.66 -10 13.32 -10 14 C-11.32 13.67 -12.64 13.34 -14 13 C-13.49210938 12.56429687 -12.98421875 12.12859375 -12.4609375 11.6796875 C-8.13240118 7.93477405 -3.99693056 4.09685382 0 0 Z " fill="#1D1026" transform="translate(256,204)"/>
<path d="M0 0 C0.33 0.66 0.66 1.32 1 2 C-1.51428571 8.51428571 -1.51428571 8.51428571 -3 10 C-3.23287008 11.68183948 -3.41264166 13.3712416 -3.5625 15.0625 C-3.68818359 16.44115234 -3.68818359 16.44115234 -3.81640625 17.84765625 C-3.87699219 18.55792969 -3.93757812 19.26820313 -4 20 C-6.48143728 16.27784408 -6.1852733 14.7017714 -5.625 10.4296875 C-4.59675875 6.43239966 -2.42967841 3.2903763 0 0 Z " fill="#C9A4E0" transform="translate(18,268)"/>
<path d="M0 0 C0.33 0 0.66 0 1 0 C1.02907584 4.3958194 1.0468244 8.79161399 1.0625 13.1875 C1.07087891 14.43337891 1.07925781 15.67925781 1.08789062 16.96289062 C1.09111328 18.16494141 1.09433594 19.36699219 1.09765625 20.60546875 C1.10289307 21.71043701 1.10812988 22.81540527 1.11352539 23.95385742 C1.00901923 26.75799379 0.64097959 29.27417329 0 32 C-0.33 32 -0.66 32 -1 32 C-1.38133299 30.0085944 -1.71325582 28.00720923 -2 26 C-1.67 25.67 -1.34 25.34 -1 25 C-0.84213692 23.14825294 -0.74892644 21.2909089 -0.68359375 19.43359375 C-0.62075195 17.7465332 -0.62075195 17.7465332 -0.55664062 16.02539062 C-0.51732422 14.84138672 -0.47800781 13.65738281 -0.4375 12.4375 C-0.39431641 11.24962891 -0.35113281 10.06175781 -0.30664062 8.83789062 C-0.20016454 5.89205216 -0.09815159 2.9461257 0 0 Z " fill="#B591C9" transform="translate(280,124)"/>
<path d="M0 0 C1 3 1 3 0.0625 4.9375 C-0.288125 5.618125 -0.63875 6.29875 -1 7 C-1 8.32 -1 9.64 -1 11 C-2.78277744 13.01623639 -4.83126157 14.37344618 -7 16 C-7.66 15.67 -8.32 15.34 -9 15 C-8.51789063 14.25234375 -8.03578125 13.5046875 -7.5390625 12.734375 C-6.90742188 11.74953125 -6.27578125 10.7646875 -5.625 9.75 C-4.99851563 8.77546875 -4.37203125 7.8009375 -3.7265625 6.796875 C-2.34865148 4.56478385 -1.11687358 2.36912578 0 0 Z " fill="#C8A0E1" transform="translate(258,175)"/>
<path d="M0 0 C0.33 0.66 0.66 1.32 1 2 C-1.07573257 6.15146514 -3.89857409 9.58047912 -7 13 C-7.66 13 -8.32 13 -9 13 C-7.50923566 9.7173068 -5.61379679 7.06922559 -3.375 4.25 C-2.74335937 3.45078125 -2.11171875 2.6515625 -1.4609375 1.828125 C-0.97882813 1.22484375 -0.49671875 0.6215625 0 0 Z " fill="#C8A2E0" transform="translate(105,68)"/>
<path d="M0 0 C0.33 0.66 0.66 1.32 1 2 C-1.65654657 5.73884332 -3.58110387 7.64978174 -8 9 C-7.04270084 7.87411986 -6.08412105 6.7493285 -5.125 5.625 C-4.59132812 4.99851563 -4.05765625 4.37203125 -3.5078125 3.7265625 C-2.38567993 2.44163349 -1.20628025 1.20628025 0 0 Z " fill="#CCA3E3" transform="translate(56,219)"/>
<path d="M0 0 C0.33 0.66 0.66 1.32 1 2 C-0.25 5.5625 -0.25 5.5625 -2 9 C-2.99 9.33 -3.98 9.66 -5 10 C-3.84414715 6.08788267 -2.64465038 3.1254959 0 0 Z " fill="#D0E2E7" transform="translate(113,98)"/>
<path d="M0 0 C0.66 0.33 1.32 0.66 2 1 C0.9375 2.9375 0.9375 2.9375 -1 5 C-4.6875 5.75 -4.6875 5.75 -8 6 C-5.38485683 3.87961365 -2.80362384 1.86908256 0 0 Z " fill="#CCA5E4" transform="translate(228,210)"/>
<path d="M0 0 C2.9375 0.375 2.9375 0.375 6 1 C6.33 1.66 6.66 2.32 7 3 C7.99 3.33 8.98 3.66 10 4 C10 4.66 10 5.32 10 6 C6.00499382 4.6302836 3.19990508 2.74277578 0 0 Z " fill="#1C0F27" transform="translate(130,209)"/>
<path d="M0 0 C0.99 0.33 1.98 0.66 3 1 C-0.465 3.97 -0.465 3.97 -4 7 C-4 6.01 -4 5.02 -4 4 C-3.34 4 -2.68 4 -2 4 C-2 3.01 -2 2.02 -2 1 C-1.34 0.67 -0.68 0.34 0 0 Z " fill="#11051B" transform="translate(64,208)"/>
<path d="M0 0 C0.66 0.33 1.32 0.66 2 1 C-1.5 5.875 -1.5 5.875 -6 7 C-4.02 4.69 -2.04 2.38 0 0 Z " fill="#1F122A" transform="translate(122,74)"/>
<path d="M0 0 C0.33 0.66 0.66 1.32 1 2 C-0.65 3.98 -2.3 5.96 -4 8 C-4.33 7.01 -4.66 6.02 -5 5 C-3.35 3.35 -1.7 1.7 0 0 Z " fill="#C79EDF" transform="translate(248,192)"/>
</svg>
