<?xml version="1.0" encoding="UTF-8"?>
<svg version="1.1" xmlns="http://www.w3.org/2000/svg" width="291" height="344">
<path d="M0 0 C96.03 0 192.06 0 291 0 C291 113.52 291 227.04 291 344 C194.97 344 98.94 344 0 344 C0 230.48 0 116.96 0 0 Z " fill="#FEFEFE" transform="translate(0,0)"/>
<path d="M0 0 C20.82979041 18.34924441 35.87365575 43.87006117 38.23046875 71.93359375 C39.98960412 105.98542837 30.37022181 134.78884098 7.47265625 160.24609375 C-11.80258582 180.51695783 -39.33861033 192.37287349 -67.125 193.2734375 C-88.41751853 193.74651236 -107.70474465 189.10328555 -126.1640625 178.4296875 C-128.43608041 176.95081045 -128.43608041 176.95081045 -130.60546875 177.109375 C-130.27546875 178.099375 -129.94546875 179.089375 -129.60546875 180.109375 C-128.75126293 188.65143316 -132.56609881 195.39519046 -137.70703125 201.9453125 C-140.49657392 205.12516155 -143.49048518 208.0886591 -146.51049805 211.046875 C-149.12115095 213.60583618 -151.61963371 216.19376201 -153.98046875 218.984375 C-158.69367189 224.5098049 -163.94642239 229.53045035 -169.11035156 234.62939453 C-170.45609514 235.96151367 -171.79306296 237.30248435 -173.12890625 238.64453125 C-198.86462112 264.25846829 -198.86462112 264.25846829 -212.79296875 264.546875 C-219.54295847 264.42525356 -223.98773615 262.72726752 -229.60546875 259.109375 C-230.48460937 258.55507813 -231.36375 258.00078125 -232.26953125 257.4296875 C-237.23974605 254.13087237 -241.15547831 250.97994974 -244.60546875 246.109375 C-244.98445312 245.57699219 -245.3634375 245.04460937 -245.75390625 244.49609375 C-249.88800144 238.11903202 -250.19411248 231.89496391 -248.73046875 224.546875 C-245.26667445 212.14680775 -237.33008912 201.20558934 -229.60546875 191.109375 C-228.65278604 189.81799833 -227.70242857 188.52490432 -226.75390625 187.23046875 C-221.72095909 180.38900733 -216.64401428 173.72945565 -210.8359375 167.515625 C-208.95495116 165.4863998 -207.15233185 163.41984817 -205.3515625 161.3203125 C-201.61832214 157.04148694 -197.62066604 153.11629911 -193.48046875 149.234375 C-192.79082031 148.57179687 -192.10117188 147.90921875 -191.390625 147.2265625 C-186.4188271 142.54946007 -182.70950203 139.81487874 -175.66796875 139.859375 C-174.85457031 139.85421875 -174.04117188 139.8490625 -173.203125 139.84375 C-170.13341403 140.15764526 -167.49456653 141.04961861 -164.60546875 142.109375 C-164.97514771 141.37170898 -164.97514771 141.37170898 -165.35229492 140.61914062 C-170.79239195 129.68054646 -175.54469589 118.95379435 -178.60546875 107.109375 C-178.85039062 106.17996094 -179.0953125 105.25054687 -179.34765625 104.29296875 C-185.22399848 76.64196114 -178.22991262 47.8050445 -163.60546875 24.109375 C-146.07244814 -1.47358898 -121.19684489 -18.68709328 -90.60546875 -24.890625 C-57.69990289 -30.11640646 -25.58960943 -21.33156457 0 0 Z " fill="#06080A" transform="translate(250.60546875,54.890625)"/>
<path d="M0 0 C0.87914062 0.00676758 1.75828125 0.01353516 2.6640625 0.02050781 C24.38982319 0.36599883 43.17195353 8.77812167 58.75390625 23.78125 C75.29237219 40.9509551 80.55400747 60.82091036 80.26171875 84.12890625 C79.84075085 102.74915843 72.29329839 118.39384086 60.125 132.25 C59.49078125 132.99507812 58.8565625 133.74015625 58.203125 134.5078125 C45.1097362 148.77624902 25.33130746 156.53841288 6.28515625 157.4296875 C-15.83050755 157.97972263 -35.485282 151.72324077 -51.71582031 136.36645508 C-67.9186054 120.63405609 -76.79313315 101.44681685 -77.3125 78.75 C-77.32480821 59.30302999 -69.88635535 40.6309717 -56.875 26.25 C-56.20984375 25.49203125 -55.5446875 24.7340625 -54.859375 23.953125 C-40.89200685 8.95113699 -20.48658046 -0.22920943 0 0 Z " fill="#D9F6FB" transform="translate(177.875,60.75)"/>
<path d="M0 0 C21.19015325 15.5829127 35.22837626 36.31490669 41 62 C41.17732666 62.68618408 41.35465332 63.37236816 41.53735352 64.0793457 C42.99447703 69.94869368 43.34931569 75.52632709 43.3125 81.5625 C43.30512817 83.00604858 43.30512817 83.00604858 43.29760742 84.47875977 C42.87301181 110.65780127 32.86289505 133.4105337 16 153 C15.36707031 153.74765625 14.73414063 154.4953125 14.08203125 155.265625 C2.0334822 168.35146635 -15.85942601 177.80069142 -33 182 C-33.95003906 182.27714844 -34.90007812 182.55429688 -35.87890625 182.83984375 C-61.57522743 189.54995409 -88.30469709 184.01680429 -111 171 C-135.88076119 155.99881025 -151.38329212 131.89971651 -158.7421875 104.20703125 C-164.13343531 78.61706735 -158.65800584 51.36151788 -145.12890625 29.24609375 C-129.2107432 4.97454605 -105.46632706 -10.83076423 -77.328125 -17.078125 C-50.99779882 -22.19449098 -21.63806386 -15.76780048 0 0 Z M-111 26 C-112.13308594 26.99580078 -112.13308594 26.99580078 -113.2890625 28.01171875 C-123.31345188 37.32992262 -129.94562637 48.99420539 -134 62 C-134.31839844 63.01320312 -134.63679688 64.02640625 -134.96484375 65.0703125 C-138.65214035 78.63004839 -138.01750576 92.60831414 -134 106 C-133.73316406 106.99257812 -133.46632813 107.98515625 -133.19140625 109.0078125 C-129.50096221 121.5717242 -122.1731292 131.81105506 -113 141 C-112.31421875 141.69738281 -111.6284375 142.39476562 -110.921875 143.11328125 C-99.28596482 154.21049188 -82.25762814 162.64324954 -66 163 C-64.17855469 163.05800781 -64.17855469 163.05800781 -62.3203125 163.1171875 C-39.69011185 163.61983933 -20.05148955 157.09653684 -3.40625 141.42578125 C12.32643943 125.56539142 20.21777126 106.98726925 20.1875 84.75 C20.07400677 60.90610449 11.87390033 42.95743449 -5 26 C-21.69055732 10.35613865 -42.68381561 5.37393045 -64.89453125 5.73046875 C-81.93277925 6.37228808 -98.55844173 14.5843246 -111 26 Z " fill="#7FCFE3" transform="translate(238,55)"/>
<path d="M0 0 C0.0515625 0.73863281 0.103125 1.47726563 0.15625 2.23828125 C1.44093703 13.72747091 7.33477904 21.47275698 16.20703125 28.62890625 C16.79871094 29.08136719 17.39039062 29.53382813 18 30 C19.175625 30.9590625 19.175625 30.9590625 20.375 31.9375 C24.49472547 33.60500793 28.61365727 33.2299636 33 33 C32.52889582 37.63805382 31.664943 39.96257339 28.4375 43.3125 C27.62667969 44.1684375 26.81585938 45.024375 25.98046875 45.90625 C25.28123291 46.62941406 25.28123291 46.62941406 24.56787109 47.3671875 C22.7922631 49.21634139 21.04584564 51.0907495 19.30078125 52.96875 C12.42052361 60.35716069 5.4733682 67.66010949 -1.75097656 74.71411133 C-4.16189533 77.08325676 -6.39116917 79.47602279 -8.5390625 82.08984375 C-10.91843906 84.90355095 -13.3086901 87.08726038 -16.1875 89.375 C-17.62416016 90.5196875 -17.62416016 90.5196875 -19.08984375 91.6875 C-20.05019531 92.450625 -21.01054688 93.21375 -22 94 C-22.88816406 94.7425 -23.77632812 95.485 -24.69140625 96.25 C-35.13463242 104.92345807 -35.13463242 104.92345807 -40.97265625 105.0390625 C-49.24001254 103.92874605 -57.28845482 97.93210832 -62.90625 91.98046875 C-66.28259453 87.16132583 -67.68010542 81.84890661 -67 76 C-62.57248246 62.71744739 -52.02949951 51.1305477 -43.32836914 40.40625 C-40.36444834 36.74597771 -37.53658461 33.03262937 -34.8125 29.1875 C-29.49049515 21.76760943 -23.5739324 15.06320595 -16.48046875 9.30078125 C-14.78587371 7.8982288 -14.78587371 7.8982288 -13 5.375 C-9.53489415 1.2601868 -5.4759568 -1.84933629 0 0 Z " fill="#7FD2E7" transform="translate(79,204)"/>
<path d="M0 0 C7.32035494 -0.09348517 14.64057712 -0.16415664 21.96141243 -0.20724869 C25.36235049 -0.22795125 28.76287441 -0.25594185 32.16357422 -0.30175781 C36.09092734 -0.35079564 40.0177069 -0.37308784 43.9453125 -0.390625 C45.73994431 -0.42159271 45.73994431 -0.42159271 47.5708313 -0.45318604 C58.5736832 -0.45605139 69.0536333 1.08188738 77.6875 8.3125 C83.62096963 14.34339934 85.14790622 18.95828209 85.5 27.375 C85.32745532 34.10424249 84.55682597 38.9185733 80 44 C67.95263023 55.23246542 53.42427279 54.41151716 38 54 C38.0807386 57.93834878 38.19359377 61.87513327 38.3125 65.8125 C38.34633789 67.49182617 38.34633789 67.49182617 38.38085938 69.20507812 C38.41630859 70.27822266 38.45175781 71.35136719 38.48828125 72.45703125 C38.51446533 73.44678955 38.54064941 74.43654785 38.56762695 75.45629883 C39.06093231 78.35847189 39.67777671 79.25477956 42 81 C44.03341887 81.77813652 44.03341887 81.77813652 46.1875 82.1875 C47.445625 82.455625 48.70375 82.72375 50 83 C50 84.98 50 86.96 50 89 C33.17 89 16.34 89 -1 89 C-1 87.02 -1 85.04 -1 83 C-0.30132812 82.81824219 0.39734375 82.63648438 1.1171875 82.44921875 C2.02726563 82.19785156 2.93734375 81.94648438 3.875 81.6875 C4.77992188 81.44386719 5.68484375 81.20023437 6.6171875 80.94921875 C9.32113319 80.13330148 9.32113319 80.13330148 11 77 C11.29850119 74.00012682 11.29850119 74.00012682 11.24291992 70.54077148 C11.24481827 69.89005676 11.24671661 69.23934204 11.24867249 68.56890869 C11.25237515 66.41951422 11.24168434 64.27045816 11.23046875 62.12109375 C11.22927663 60.62801656 11.22882385 59.13493861 11.2290802 57.64186096 C11.22751627 54.51387838 11.21923286 51.3860104 11.20581055 48.25805664 C11.18880613 44.24399708 11.18499669 40.2300633 11.18575573 36.21597195 C11.18548414 33.13368016 11.18000488 30.05141599 11.17275429 26.96913338 C11.1695674 25.48872143 11.16760017 24.00830635 11.16686058 22.52789116 C11.16469805 20.46181757 11.15595619 18.39587873 11.14526367 16.32983398 C11.14145187 15.15307602 11.13764008 13.97631805 11.13371277 12.76390076 C11.18824148 10.04025723 11.18824148 10.04025723 10 8 C7.65613191 7.08968728 7.65613191 7.08968728 4.9375 6.375 C3.55884766 5.98441406 3.55884766 5.98441406 2.15234375 5.5859375 C1.08693359 5.29589844 1.08693359 5.29589844 0 5 C0 3.35 0 1.7 0 0 Z " fill="#040506" transform="translate(144,92)"/>
<path d="M0 0 C21.19015325 15.5829127 35.22837626 36.31490669 41 62 C41.17732666 62.68618408 41.35465332 63.37236816 41.53735352 64.0793457 C42.99447703 69.94869368 43.34931569 75.52632709 43.3125 81.5625 C43.30512817 83.00604858 43.30512817 83.00604858 43.29760742 84.47875977 C42.88005495 110.2235464 33.12657205 132.40357126 17 152 C16.67 150.68 16.34 149.36 16 148 C15.34 148 14.68 148 14 148 C13.67 148.66 13.34 149.32 13 150 C12.67 148.02 12.34 146.04 12 144 C10.68 143.67 9.36 143.34 8 143 C8.83333333 141.33333333 9.66666667 139.66666667 10.5 138 C11.04398438 136.90429688 11.58796875 135.80859375 12.1484375 134.6796875 C13.41314763 132.14615659 14.71452609 129.63554843 16.0390625 127.1328125 C26.40058692 107.35105879 30.96273689 84.60694354 25.25 62.5625 C23.53928826 57.18512288 21.58487396 52.01610156 19 47 C18.56945312 46.12988281 18.13890625 45.25976562 17.6953125 44.36328125 C7.4988203 24.60413285 -9.9375958 10.08806656 -31 3 C-54.99016476 -4.53553064 -77.51970453 -1.83249603 -99.78125 9.29296875 C-102.77885295 10.68105521 -102.77885295 10.68105521 -104 12 C-106.9375 12.1875 -106.9375 12.1875 -110 12 C-110.66 11.34 -111.32 10.68 -112 10 C-112.99 10.33 -113.98 10.66 -115 11 C-117 5.375 -117 5.375 -117 2 C-116.38125 1.7525 -115.7625 1.505 -115.125 1.25 C-112.8624798 0.22070836 -112.8624798 0.22070836 -112.32421875 -1.828125 C-110.29359027 -5.15859532 -107.09824501 -6.37165961 -103.6875 -8 C-102.97126465 -8.34885254 -102.2550293 -8.69770508 -101.51708984 -9.05712891 C-69.28844704 -24.35268403 -28.95451986 -21.09935043 0 0 Z " fill="#80D0E4" transform="translate(238,55)"/>
<path d="M0 0 C2.63401147 2.01189475 5.15657295 4.12276501 7.67456055 6.27905273 C8.4222168 6.91327148 9.16987305 7.54749023 9.94018555 8.20092773 C23.07239036 20.29910067 33.58472192 40.97771837 34.8515625 58.76416016 C35.52526476 87.57231277 29.57067179 110.5682152 9.42456055 131.96655273 C-8.46092311 149.10680791 -31.87390084 156.97916087 -56.3996582 156.54858398 C-79.75425241 155.61440022 -100.59266315 144.30742488 -116.46606445 127.54077148 C-130.96346411 111.48592026 -137.96035311 90.34348424 -137.76293945 68.90405273 C-137.75391602 67.72157959 -137.74489258 66.53910645 -137.7355957 65.32080078 C-137.26735971 41.6569993 -126.23252015 21.24036291 -109.37231445 4.91577148 C-78.67353297 -22.57432346 -32.99415776 -24.13603995 0 0 Z M-104.32543945 11.27905273 C-105.45852539 12.27485352 -105.45852539 12.27485352 -106.61450195 13.29077148 C-116.63889133 22.60897536 -123.27106583 34.27325812 -127.32543945 47.27905273 C-127.64383789 48.29225586 -127.96223633 49.30545898 -128.2902832 50.34936523 C-131.9775798 63.90910112 -131.34294521 77.88736687 -127.32543945 91.27905273 C-127.05860352 92.27163086 -126.79176758 93.26420898 -126.5168457 94.28686523 C-122.82640166 106.85077694 -115.49856865 117.09010779 -106.32543945 126.27905273 C-105.6396582 126.97643555 -104.95387695 127.67381836 -104.24731445 128.39233398 C-92.61140427 139.48954462 -75.58306759 147.92230227 -59.32543945 148.27905273 C-57.50399414 148.33706055 -57.50399414 148.33706055 -55.64575195 148.39624023 C-33.0155513 148.89889207 -13.37692901 142.37558958 3.26831055 126.70483398 C19.00099997 110.84444416 26.89233181 92.26632199 26.86206055 70.02905273 C26.74856732 46.18515722 18.54846088 28.23648723 1.67456055 11.27905273 C-15.01599677 -4.36480862 -36.00925506 -9.34701682 -58.2199707 -8.99047852 C-75.2582187 -8.34865919 -91.88388118 -0.13662266 -104.32543945 11.27905273 Z " fill="#05090B" transform="translate(231.325439453125,69.720947265625)"/>
<path d="M0 0 C3.94492071 1.23762218 6.22160506 2.774345 8.375 6.25 C12.05903151 14.60458191 10.94405796 25.52468412 7.9921875 33.97265625 C6.18273803 37.66991717 3.65703221 40.1714839 0 42 C-1.49649362 42.12005453 -2.99874793 42.17531451 -4.5 42.1875 C-5.2940625 42.20167969 -6.088125 42.21585938 -6.90625 42.23046875 C-9 42 -9 42 -11 40 C-11.22431566 37.32216111 -11.32813506 34.75071398 -11.3359375 32.0703125 C-11.3425943 31.28357147 -11.3492511 30.49683044 -11.35610962 29.68624878 C-11.36624299 28.02018576 -11.37092643 26.35408209 -11.37060547 24.68798828 C-11.37497159 22.14156898 -11.41126123 19.59689283 -11.44921875 17.05078125 C-11.45508826 15.4322976 -11.45905676 13.8138057 -11.4609375 12.1953125 C-11.48249405 11.05450729 -11.48249405 11.05450729 -11.50448608 9.89065552 C-11.47432387 6.39080219 -11.27473818 4.37554192 -9.18212891 1.51513672 C-5.97850949 -0.70926047 -3.82132181 -0.46119401 0 0 Z " fill="#D8F3F8" transform="translate(193,98)"/>
<path d="M0 0 C3.2268251 3.12273396 6.22326745 6.37582039 9.1875 9.75 C13.78529665 14.90510534 18.77841444 19.48698033 24 24 C21.69237738 26.45618202 20.35398318 27.87687542 17.125 29 C13.01869623 29 10.92876082 27.67832046 8 25 C-2.36523832 14.39784195 -2.36523832 14.39784195 -3.3984375 8.8671875 C-3.33466135 3.44621514 -3.33466135 3.44621514 -1.5 1 C-1.005 0.67 -0.51 0.34 0 0 Z " fill="#CBAA81" transform="translate(90,202)"/>
<path d="M0 0 C0 3 0 3 -1.50390625 4.76171875 C-2.18324219 5.39722656 -2.86257812 6.03273437 -3.5625 6.6875 C-8.29006776 11.24028092 -12.54494256 16.09807903 -16.78125 21.10546875 C-20.26797172 25.18095707 -23.76933795 28.69801986 -28 32 C-28.66 31.67 -29.32 31.34 -30 31 C-29.55197021 30.55720703 -29.10394043 30.11441406 -28.64233398 29.65820312 C-26.57129904 27.60823317 -24.50439303 25.55414567 -22.4375 23.5 C-21.38079102 22.45585937 -21.38079102 22.45585937 -20.30273438 21.390625 C-16.19919641 17.30599734 -12.28961749 13.1233609 -8.51147461 8.73632812 C-6.77334662 6.73962869 -4.9533505 4.85226172 -3.0625 3 C-2.47597656 2.4225 -1.88945313 1.845 -1.28515625 1.25 C-0.86105469 0.8375 -0.43695313 0.425 0 0 Z " fill="#0B1D25" transform="translate(108,246)"/>
<path d="M0 0 C0 3.95566141 -1.39609149 5.09914371 -3.875 8.125 C-4.59429687 9.01445313 -5.31359375 9.90390625 -6.0546875 10.8203125 C-8 13 -8 13 -10 14 C-10.103125 14.639375 -10.20625 15.27875 -10.3125 15.9375 C-10.539375 16.618125 -10.76625 17.29875 -11 18 C-13.54296875 19.12890625 -13.54296875 19.12890625 -16 20 C-11.45764528 12.62535352 -6.12698776 6.12698776 0 0 Z " fill="#82C2D3" transform="translate(109,65)"/>
<path d="M0 0 C1.09404518 3.33644983 0.89669485 5.7065788 0.1875 9.125 C0.01605469 9.99382812 -0.15539062 10.86265625 -0.33203125 11.7578125 C-1 14 -1 14 -3 16 C-3.69748583 17.31747324 -4.36959957 18.64914193 -5 20 C-5.99 20 -6.98 20 -8 20 C-7.59007812 19.14277344 -7.18015625 18.28554687 -6.7578125 17.40234375 C-2.74780149 8.92734235 -2.74780149 8.92734235 0 0 Z " fill="#78B6C6" transform="translate(263,161)"/>
<path d="M0 0 C0 3 0 3 -2.0625 5.1875 C-2.51109375 5.60773438 -2.9596875 6.02796875 -3.421875 6.4609375 C-6.48521688 9.44845408 -9.20971198 12.75940613 -12 16 C-12.66 15.67 -13.32 15.34 -14 15 C-12.23000902 13.06172464 -10.45904239 11.12435656 -8.6875 9.1875 C-8.18798828 8.64029297 -7.68847656 8.09308594 -7.17382812 7.52929688 C-4.83056872 4.96878163 -2.48855146 2.42060466 0 0 Z " fill="#05121A" transform="translate(123,74)"/>
<path d="M0 0 C0.33 0.66 0.66 1.32 1 2 C-0.97764782 6.06516496 -3.7373124 8.91367389 -7 12 C-7.99 11.67 -8.98 11.34 -10 11 C-9.44570312 10.45730469 -8.89140625 9.91460937 -8.3203125 9.35546875 C-7.23363281 8.28232422 -7.23363281 8.28232422 -6.125 7.1875 C-5.40570313 6.47980469 -4.68640625 5.77210938 -3.9453125 5.04296875 C-1.84641063 2.95600806 -1.84641063 2.95600806 0 0 Z " fill="#81C4D1" transform="translate(248,192)"/>
<path d="M0 0 C0.68835938 0.59748047 0.68835938 0.59748047 1.390625 1.20703125 C4.52271585 3.91142062 7.63877459 6.57991771 11 9 C8.03 8.505 8.03 8.505 5 8 C4.67 8.66 4.34 9.32 4 10 C1.125 3.375 1.125 3.375 0 0 Z " fill="#86C8D8" transform="translate(88,227)"/>
<path d="M0 0 C0.99 0.33 1.98 0.66 3 1 C2.67 2.65 2.34 4.3 2 6 C0.68 6 -0.64 6 -2 6 C-2.33 6.66 -2.66 7.32 -3 8 C-3.66 7.67 -4.32 7.34 -5 7 C-3.35 4.69 -1.7 2.38 0 0 Z " fill="#D2E6EB" transform="translate(117,92)"/>
<path d="M0 0 C-5.16923077 4.06153846 -5.16923077 4.06153846 -9.375 3.75 C-10.24125 3.5025 -11.1075 3.255 -12 3 C-3.33333333 -1.66666667 -3.33333333 -1.66666667 0 0 Z " fill="#7EBDCC" transform="translate(212,221)"/>
<path d="M0 0 C1.32 0 2.64 0 4 0 C4.33 1.32 4.66 2.64 5 4 C5.66 4 6.32 4 7 4 C7.33 4.99 7.66 5.98 8 7 C7.01 7 6.02 7 5 7 C3.61328125 5.46875 3.61328125 5.46875 2.3125 3.5 C1.87550781 2.8503125 1.43851562 2.200625 0.98828125 1.53125 C0.49908203 0.77328125 0.49908203 0.77328125 0 0 Z " fill="#7FC2D3" transform="translate(98,199)"/>
<path d="M0 0 C0.66 0.33 1.32 0.66 2 1 C-0.31 3.31 -2.62 5.62 -5 8 C-5.99 7.34 -6.98 6.68 -8 6 C-5.36 4.02 -2.72 2.04 0 0 Z " fill="#09181F" transform="translate(244,216)"/>
<path d="M0 0 C1.65 1.65 3.3 3.3 5 5 C4.01 5.66 3.02 6.32 2 7 C0.62437146 5.71034824 -0.70766393 4.37310707 -2 3 C-2 2.34 -2 1.68 -2 1 C-1.34 0.67 -0.68 0.34 0 0 Z " fill="#BCA27D" transform="translate(90,202)"/>
<path d="M0 0 C2.475 0.99 2.475 0.99 5 2 C3.35 3.65 1.7 5.3 0 7 C-0.93423645 3.98968256 -1.04449911 3.13349732 0 0 Z " fill="#7FC5D5" transform="translate(127,65)"/>
<path d="M0 0 C0.99 0.99 1.98 1.98 3 3 C2.67 3.99 2.34 4.98 2 6 C-0.5 4.625 -0.5 4.625 -3 3 C-3 2.34 -3 1.68 -3 1 C-2.01 0.67 -1.02 0.34 0 0 Z " fill="#80C5D7" transform="translate(229,64)"/>
<path d="M0 0 C1.98 0.66 3.96 1.32 6 2 C6 2.66 6 3.32 6 4 C7.32 4.66 8.64 5.32 10 6 C5.16743695 5.58578031 3.17320782 3.53586014 0 0 Z " fill="#BA9F82" transform="translate(97,225)"/>
<path d="M0 0 C0.66 0.33 1.32 0.66 2 1 C0.35 2.65 -1.3 4.3 -3 6 C-3.99 5.34 -4.98 4.68 -6 4 C-4.02 2.68 -2.04 1.36 0 0 Z " fill="#7DBECD" transform="translate(125,52)"/>
</svg>
