<?xml version="1.0" encoding="UTF-8"?>
<svg version="1.1" xmlns="http://www.w3.org/2000/svg" width="290" height="344">
<path d="M0 0 C95.7 0 191.4 0 290 0 C290 113.52 290 227.04 290 344 C194.3 344 98.6 344 0 344 C0 230.48 0 116.96 0 0 Z " fill="#FEFEFE" transform="translate(0,0)"/>
<path d="M0 0 C0.93489258 0.32943604 0.93489258 0.32943604 1.88867188 0.66552734 C15.22111374 5.40841263 27.28871613 11.68888395 38 21 C38.80953125 21.66515625 39.6190625 22.3303125 40.453125 23.015625 C60.98481659 40.44819333 73.87361322 66.37086351 77 93 C78.8436678 122.53979576 71.61383466 151.32369195 52.33984375 174.37109375 C35.87316919 192.87204864 16.30953893 205.99374201 -8 212 C-8.87785156 212.22429687 -9.75570312 212.44859375 -10.66015625 212.6796875 C-38.09611677 218.44321302 -64.75426749 211.69862244 -89 199 C-90.33159384 198.32986564 -91.66407017 197.66144819 -93 197 C-92.505 197.7734375 -92.505 197.7734375 -92 198.5625 C-89.94598406 203.56916385 -90.77411483 207.93199549 -92.5625 212.875 C-94.83127566 218.1769417 -97.95509822 222.87539572 -102 227 C-102.66 227 -103.32 227 -104 227 C-104.33064453 227.82177734 -104.33064453 227.82177734 -104.66796875 228.66015625 C-106.41870129 231.73548994 -108.78947066 234.00158721 -111.3125 236.4375 C-111.78623047 236.90220703 -112.25996094 237.36691406 -112.74804688 237.84570312 C-114.16266386 239.23322758 -115.58131512 240.61663507 -117 242 C-118.66791651 243.66541589 -120.33469221 245.33197556 -122 247 C-122.680625 247.66902344 -123.36125 248.33804688 -124.0625 249.02734375 C-126.98312461 251.90674987 -129.77210933 254.71051726 -132.3125 257.9375 C-135.42174499 261.81615138 -139.43547889 264.6896412 -143.3046875 267.76953125 C-145.55073359 269.62821577 -147.51991773 271.4966507 -149.5 273.625 C-155.39979758 279.73855836 -164.39954318 286.21012276 -173.1875 286.375 C-183.53659408 286.10085181 -194.22414034 279.67308422 -201.75 272.875 C-206.72934183 267.55266313 -210.32204875 260.72873187 -211.625 253.5625 C-208.45265011 235.48010565 -198.1463338 221.20383509 -187 207 C-186.16457463 205.90002326 -185.33131279 204.79840063 -184.5 203.6953125 C-180.15894485 197.95140587 -175.71244061 192.36527923 -170.85546875 187.04296875 C-169.0610472 185.06721619 -167.34486994 183.04059161 -165.625 181 C-161.471483 176.23818761 -156.76575984 172.13453337 -152 168 C-151.11054688 167.20335937 -151.11054688 167.20335937 -150.203125 166.390625 C-145.02355601 161.85182744 -141.10401549 160.77187822 -134.37890625 160.83203125 C-131.54479121 161.03214118 -128.79481504 161.49733542 -126 162 C-126.50789063 161.13761719 -127.01578125 160.27523437 -127.5390625 159.38671875 C-141.7502154 134.4877534 -146.53399654 104.91003264 -139 77 C-130.74650539 47.87891985 -112.12829829 24.23748573 -86.1875 8.75 C-61.12676904 -5.08240346 -27.26244599 -9.96127834 0 0 Z " fill="#060806" transform="translate(212,33)"/>
<path d="M0 0 C0.76570312 0.59167969 1.53140625 1.18335937 2.3203125 1.79296875 C16.44914503 13.33725874 24.66977275 30.30068311 28 48 C28.38365997 52.17865015 28.42188681 56.30623572 28.375 60.5 C28.38660156 61.53769531 28.39820313 62.57539063 28.41015625 63.64453125 C28.33330996 84.21372073 19.21352662 102.53183365 5 117 C4.24976563 117.77472656 3.49953125 118.54945313 2.7265625 119.34765625 C-13.97359249 135.52072994 -34.89610951 139.6223486 -57.40625 139.34375 C-65.6839917 139.06123322 -72.40577421 137.29461809 -80 134 C-81.04800781 133.56558594 -82.09601563 133.13117188 -83.17578125 132.68359375 C-103.8489811 123.27205919 -116.68589836 106.94322776 -125.0859375 86.3359375 C-125.83495337 84.23720987 -126.44902705 82.1583226 -127 80 C-127.20238281 79.29746094 -127.40476562 78.59492188 -127.61328125 77.87109375 C-132.68965113 57.46201483 -127.57471171 36.67604849 -117 19 C-105.4332352 0.95584691 -88.33150032 -11.37189017 -67.40234375 -16.4765625 C-43.29999378 -21.72813144 -18.91283241 -15.55927906 0 0 Z " fill="#D9F5FB" transform="translate(230,78)"/>
<path d="M0 0 C20.72610839 17.65978763 35.40187654 42.13938636 37.70288086 69.65869141 C39.16153243 98.78142445 31.17832157 125.79430508 11.44848633 147.61621094 C10.62735352 148.53144531 9.8062207 149.44667969 8.96020508 150.38964844 C-2.27359879 162.27251653 -15.43245774 169.71367874 -30.55151367 175.61621094 C-31.81415039 176.1228125 -31.81415039 176.1228125 -33.10229492 176.63964844 C-56.03223602 185.10737806 -83.86615683 182.40677634 -105.80688477 172.45678711 C-117.68440883 166.80455078 -127.20601166 159.72669293 -136.55151367 150.61621094 C-137.19604492 150.04515625 -137.84057617 149.47410156 -138.50463867 148.88574219 C-154.35960714 134.47550215 -164.50397386 109.50684551 -165.67602539 88.37084961 C-166.63540272 58.66292607 -158.70611048 31.93143453 -138.55151367 9.61621094 C-102.68135177 -28.592515 -40.78708125 -33.55196698 0 0 Z M-123.55151367 28.61621094 C-137.58437774 44.9870293 -144.03713231 65.99365623 -142.76733398 87.37011719 C-140.80819931 107.7593016 -130.52007149 127.70071823 -114.96020508 140.97363281 C-100.29222671 152.79033799 -83.50497304 159.19158646 -64.61401367 158.99121094 C-62.97916016 159.00861328 -62.97916016 159.00861328 -61.3112793 159.02636719 C-40.54875075 158.95234748 -22.18106658 149.98828372 -7.55151367 135.61621094 C-6.77678711 134.86597656 -6.00206055 134.11574219 -5.20385742 133.34277344 C8.80974538 118.8724666 14.60468421 100.28345699 14.69848633 80.49121094 C14.71911133 79.42644531 14.73973633 78.36167969 14.76098633 77.26464844 C14.84584074 59.78463858 8.43632259 44.08517151 -2.55151367 30.61621094 C-3.49317383 29.42898437 -3.49317383 29.42898437 -4.45385742 28.21777344 C-17.60141436 12.46221441 -37.42934531 3.66716808 -57.55151367 1.61621094 C-82.99194882 -0.07012648 -106.4228373 9.95404553 -123.55151367 28.61621094 Z " fill="#7FB07E" transform="translate(243.551513671875,58.3837890625)"/>
<path d="M0 0 C-0.103125 1.27875 -0.20625 2.5575 -0.3125 3.875 C-0.21588108 14.1810183 6.23719511 20.78499374 13.18359375 27.65234375 C17.92712126 31.60637985 21.67148181 33.41445798 27.875 33.1875 C28.84179688 33.16042969 29.80859375 33.13335937 30.8046875 33.10546875 C31.52914062 33.07066406 32.25359375 33.03585938 33 33 C31.75569232 42.40696608 22.87718591 49.29469119 16.37182617 55.65600586 C12.85935666 59.09570707 9.59771196 62.6528243 6.5 66.4765625 C5 68 5 68 2.9375 68.9609375 C0.47833288 70.27976503 0.21991038 71.53327778 -1 74 C-2.92655019 76.336726 -5.09965251 78.43161661 -7.25 80.5625 C-7.8682666 81.17730225 -8.4865332 81.79210449 -9.12353516 82.42553711 C-32.22665347 105 -32.22665347 105 -44 105 C-52.59537962 102.52056357 -60.81260107 96.19504997 -66 89 C-68.19447965 83.9526968 -69.10292074 79.26563123 -67.30078125 73.9296875 C-61.56767179 61.3552095 -52.09061376 50.04754248 -43.36108398 39.43676758 C-40.51745963 35.9688469 -37.88584743 32.42058084 -35.3125 28.74609375 C-30.84476737 22.56032832 -25.68316601 17.27514622 -20.25 11.9375 C-19.30802136 10.9934093 -18.36661269 10.04874957 -17.42578125 9.10351562 C-7.88844133 -0.35856552 -7.88844133 -0.35856552 0 0 Z " fill="#80B37E" transform="translate(80,203)"/>
<path d="M0 0 C15.97160702 12.38552922 27.20705704 28.91927712 32.0703125 48.60546875 C32.41707031 49.60320312 32.76382813 50.6009375 33.12109375 51.62890625 C34.62129167 56.8746826 34.41111639 62.25383965 34.3828125 67.66796875 C34.37717285 68.7854248 34.3715332 69.90288086 34.36572266 71.05419922 C34.02220049 94.45792213 25.1559361 113.7662844 9.0703125 130.60546875 C8.53019531 131.22035156 7.99007812 131.83523437 7.43359375 132.46875 C-5.78282081 146.9502118 -27.13542183 154.99290149 -46.32421875 155.921875 C-73.09502257 156.71379148 -94.83769069 148.36189547 -114.5546875 130.03125 C-131.31581039 112.91174784 -138.21749501 90.16081907 -138.24658203 66.75708008 C-137.98796745 43.69727963 -128.36266661 22.80256778 -111.9296875 6.60546875 C-80.29875467 -22.0151996 -34.94477954 -24.7802334 0 0 Z M-111.9296875 17.60546875 C-125.96255157 33.97628711 -132.41530613 54.98291404 -131.14550781 76.359375 C-129.18637314 96.74855941 -118.89824532 116.68997604 -103.33837891 129.96289062 C-88.67040053 141.7795958 -71.88314687 148.18084428 -52.9921875 147.98046875 C-51.35733398 147.99787109 -51.35733398 147.99787109 -49.68945312 148.015625 C-28.92692458 147.94160529 -10.55924041 138.97754153 4.0703125 124.60546875 C4.84503906 123.85523438 5.61976563 123.105 6.41796875 122.33203125 C20.43157155 107.86172441 26.22651039 89.27271481 26.3203125 69.48046875 C26.3409375 68.41570312 26.3615625 67.3509375 26.3828125 66.25390625 C26.46766692 48.77389639 20.05814876 33.07442933 9.0703125 19.60546875 C8.12865234 18.41824219 8.12865234 18.41824219 7.16796875 17.20703125 C-5.97958819 1.45147222 -25.80751914 -7.34357411 -45.9296875 -9.39453125 C-71.37012265 -11.08086867 -94.80101112 -1.05669666 -111.9296875 17.60546875 Z " fill="#050807" transform="translate(231.9296875,69.39453125)"/>
<path d="M0 0 C0.79681084 8.02502344 1.12867289 15.93649887 1 24 C-0.65 24 -2.3 24 -4 24 C-4.43699219 22.82244141 -4.43699219 22.82244141 -4.8828125 21.62109375 C-7.73686104 14.30647249 -10.45091063 7.82781231 -17.3125 3.5625 C-22.69712426 2.43548562 -27.21724413 1.88577758 -32 4.875 C-35.10035558 8.1691278 -35.15461129 10.34670194 -35.328125 14.83203125 C-34.64286564 19.35963771 -32.51433351 21.61213126 -28.91796875 24.32421875 C-27.68052925 25.12144915 -26.43664765 25.90874268 -25.1875 26.6875 C-23.83742104 27.56076994 -22.48849041 28.43581738 -21.140625 29.3125 C-20.11098633 29.97765625 -20.11098633 29.97765625 -19.06054688 30.65625 C1.43374767 44.02124967 1.43374767 44.02124967 5 53 C5.88610736 61.27376987 5.66290211 68.91481107 1 76 C-1.4375 78.8125 -1.4375 78.8125 -4 81 C-4.680625 81.680625 -5.36125 82.36125 -6.0625 83.0625 C-15.58097755 89.34064477 -26.9002502 90.54987594 -38 89 C-57.01216814 84.98783186 -57.01216814 84.98783186 -60 82 C-60.08748207 80.07332493 -60.10697334 78.14348139 -60.09765625 76.21484375 C-60.09443359 75.04501953 -60.09121094 73.87519531 -60.08789062 72.66992188 C-60.07951172 71.43822266 -60.07113281 70.20652344 -60.0625 68.9375 C-60.05798828 67.70193359 -60.05347656 66.46636719 -60.04882812 65.19335938 C-60.03699608 62.12885883 -60.02051173 59.06445279 -60 56 C-57.525 55.505 -57.525 55.505 -55 55 C-54.70867187 55.7734375 -54.41734375 56.546875 -54.1171875 57.34375 C-50.13984714 67.44969658 -45.39240872 75.91472149 -35.625 81.3125 C-29.68492316 82.86823441 -23.61328876 82.46984705 -18 80 C-15.75189699 75.7970248 -15.49644501 71.69984656 -16 67 C-18.57715011 62.43739241 -21.2119713 59.78907026 -25.578125 56.94140625 C-26.65707031 56.22533203 -27.73601562 55.50925781 -28.84765625 54.77148438 C-29.98122763 54.03432026 -31.11534573 53.29799621 -32.25 52.5625 C-54.52943351 38.00759335 -54.52943351 38.00759335 -57 29 C-58.21461953 20.63647693 -56.89528288 13.92262226 -52 7 C-38.55518775 -8.1417303 -17.4142361 -5.75337594 0 0 Z " fill="#040506" transform="translate(210,94)"/>
<path d="M0 0 C2.91879192 2.83034368 5.6610837 5.72931636 8.3125 8.8125 C12.01031342 13.08355524 15.97010434 17.04488591 20 21 C21.33449731 22.33216834 22.66814404 23.66519093 24 25 C20.7039388 27.6529273 18.91450138 29.02423218 14.609375 28.91015625 C7.52158949 27.12286835 2.28071872 20.37952131 -1.625 14.375 C-3.36679826 10.09967699 -3.53459626 7.58225365 -3 3 C-1.5 1 -1.5 1 0 0 Z " fill="#CBAA81" transform="translate(90,201)"/>
<path d="M0 0 C5.09123397 4.93695416 10.05866794 10.0880019 14 16 C11 16 11 16 9.3125 14.625 C8 13 8 13 8 11 C7.01 11 6.02 11 5 11 C4.67 10.01 4.34 9.02 4 8 C3.01 9.32 2.02 10.64 1 12 C-1.39189062 10.1280856 -2.00772029 8.97353044 -2.875 6 C-3 3 -3 3 -1.5625 1.125 C-1.046875 0.75375 -0.53125 0.3825 0 0 Z " fill="#C9A880" transform="translate(90,201)"/>
<path d="M0 0 C3.91939465 3.80411834 7.49102731 7.81576108 11 12 C8 12 8 12 6.3125 10.625 C5 9 5 9 5 7 C4.01 7 3.02 7 2 7 C1.34 4.69 0.68 2.38 0 0 Z " fill="#B69978" transform="translate(93,205)"/>
<path d="M0 0 C0.94875 0.04125 1.8975 0.0825 2.875 0.125 C2.875 3.755 2.875 7.385 2.875 11.125 C2.215 10.795 1.555 10.465 0.875 10.125 C0.46770772 7.80343403 0.13061323 5.4681213 -0.125 3.125 C-1.775 2.795 -3.425 2.465 -5.125 2.125 C-3.125 0.125 -3.125 0.125 0 0 Z " fill="#7EA37D" transform="translate(77.125,202.875)"/>
<path d="M0 0 C-0.375 2.4375 -0.375 2.4375 -1 5 C-1.99 5.495 -1.99 5.495 -3 6 C-3.33 5.01 -3.66 4.02 -4 3 C-5.65 2.67 -7.3 2.34 -9 2 C-9 1.67 -9 1.34 -9 1 C-2.25 0 -2.25 0 0 0 Z " fill="#708E6E" transform="translate(113,236)"/>
<path d="M0 0 C0.99 0 1.98 0 3 0 C3.99 1.98 4.98 3.96 6 6 C5.01 5.67 4.02 5.34 3 5 C3 4.34 3 3.68 3 3 C1.68 3.33 0.36 3.66 -1 4 C-0.67 2.68 -0.34 1.36 0 0 Z " fill="#7BA579" transform="translate(78,215)"/>
</svg>
